<svg xmlns="http://www.w3.org/2000/svg" width="197.191" height="448" viewBox="0 0 197.191 448">
  <g id="bg" transform="translate(-0.056 0.04)">
    <path id="Path_7694" data-name="Path 7694" d="M343.083,77.758a3.807,3.807,0,0,1-4.949-1.108,3.92,3.92,0,0,0-1.447-1.176,15.012,15.012,0,0,0-11.218-.838c-.355.121-.705.248-1.052.389-.073.031-.116.133-.406.485,1.41,1.39,2.84,2.8,3.945,3.889A40.643,40.643,0,0,1,332,77.178c.454-.189,1.165.243,1.76.389a5.389,5.389,0,0,1-.894,1.729,11.777,11.777,0,0,1-2.335,1.252c1.712.457,3.189,1.32,5.1.522.818-.341,2.056.158,3.043.471a1.436,1.436,0,0,1,.663,1.227c-.059.386-.587.821-1.007,1a3.54,3.54,0,0,1-3.612-.9A3.9,3.9,0,0,0,333.244,82a14.625,14.625,0,0,1-2.95-.866c-1.994-1.238-3.519-.262-5.2.725a19.634,19.634,0,0,0,3.948,6.438,2.187,2.187,0,0,0,.981.429c1.32.423,2.747,2.183,2.64,3.491-.031.378-.6,1.035-.88,1.015-1.723-.118-3.39-.056-4.661-1.9-.618-.9-2.521-1-3.88-1.263a9.557,9.557,0,0,0-6.37,1.012c4.261.245,7.513,2.372,10.4,5.248a2.09,2.09,0,0,0,1.1.44,3.916,3.916,0,0,1,3.063,2.761c.265,1.131-.375,1.757-1.483,1.393a4.077,4.077,0,0,1-2.578-2.775,4.529,4.529,0,0,0-.905-1.636,13.988,13.988,0,0,0-8.818-4.523c-.688-.068-1.387-.008-2.228-.008a10.983,10.983,0,0,0,2.893,6.289,13.751,13.751,0,0,0,2.662,2.279,6.583,6.583,0,0,0,2.408.742,3.3,3.3,0,0,1,2.876,1.937c.361.9-.025,1.458-.962,1.607a3.212,3.212,0,0,1-3.223-2.022c-.141-.372-.259-.877-.55-1.052a13.363,13.363,0,0,1-6.661-8.787,17.946,17.946,0,0,0-.671,9.777c.186.908,1.052,1.148,1.963.623a5,5,0,0,1,5.166.333c.942.773.846,1.6-.3,1.985a5,5,0,0,1-4.659-.812,13.907,13.907,0,0,0-1.469-.8l-.457.4c.448.722.9,1.441,1.345,2.163a11.321,11.321,0,0,1,1,1.664c.406,1.024.705,2.092,1.035,3.144s-.33,1.582-1.139,1.317c-1.105-.364-2.572-.877-3.009-1.76-.95-1.912-2.7-2.459-4.207-3.449a3.863,3.863,0,0,1-5.189.279c-1.61-1.373-2.231-1.23-3.012.716-.226.561-.392,1.142-.6,1.771,1.105.6,2.744.9,2.273,2.515-.135.46-1.641.522-2.831.852.1,1.864-.479,4.134.829,6.427.649,1.136.5,2.764.553,4.174.011.344-.564.9-.967,1.01-.29.079-.84-.338-1.1-.674a4.879,4.879,0,0,1-.166-5.062,2.047,2.047,0,0,0,.3-1c0-2.016,0-4.035-.1-6.046a5.594,5.594,0,0,0-.8-2.335,15.9,15.9,0,0,0-3.029,7.558c-.206,1.28.234,2.654.1,3.956-.1.939-.584,2.146-1.791,1.971-1.294-.189-1.038-1.486-1.012-2.422a4.138,4.138,0,0,1,1.6-3.44,2.693,2.693,0,0,0,.668-1.28c.761-2.256,1.489-4.523,2.3-7a10.577,10.577,0,0,0-5.7-1.94,1.645,1.645,0,0,0-.99.443,17.88,17.88,0,0,0-5.823,8.46,1.783,1.783,0,0,0-.135.671,6.752,6.752,0,0,1-.869,4.106,7.716,7.716,0,0,0,1.4.443,3.9,3.9,0,0,1,3.006,2.279c.175.316.209,1,.017,1.156a1.324,1.324,0,0,1-1.241.172,9.826,9.826,0,0,1-2.335-2.284c-.525-.821-.8-1.669-2.011-1.5-.2.028-.479-.231-.663-.417-.767-.781-1.509-1.588-2.239-2.358l-1.506,1.083c.8,1.435,1.543,2.84,2.349,4.21.195.33.668.493.857.823a24.409,24.409,0,0,1,1.444,2.9,1.019,1.019,0,0,1-.4.911,1.261,1.261,0,0,1-1.105-.3,5.368,5.368,0,0,1-1.117-2.49c.025-2.445-1.506-4.027-2.772-5.781-.1-.141-.333-.186-.448-.324-2.169-2.552-2.245-2.476-4.684-.085-1.658,1.627-2.724,3.872-3.973,5.891-.234.378.02,1.032-.135,1.495a20.8,20.8,0,0,1-1.277,3.034c-.13.245-.756.384-1.091.3-.211-.048-.44-.587-.443-.905a3.882,3.882,0,0,1,1.779-3.593,2.482,2.482,0,0,0,.843-1.018,16.443,16.443,0,0,1,5.087-6.8c-.068-.11-.135-.22-.2-.33a27.288,27.288,0,0,0-3.621,1.878c-1.763,1.263-3.576,2.5-4.216,4.856-.214.784-1.153,1.41-1.853,2a1.171,1.171,0,0,1-1.131.037,1.256,1.256,0,0,1-.245-1.12,3.872,3.872,0,0,1,2.611-2.721,2.931,2.931,0,0,0,1.28-.691,15.094,15.094,0,0,1,7.826-4.977.679.679,0,0,0,.3-.192c-1.128-3.034-2.228-5.984-3.328-8.948.068-.034-.065.006-.164.085-.733.6-1.6,1.179-2.281.164a1.632,1.632,0,0,1,.75-2.405c2.05-.953,1.771-2.687,1.861-4.681-1.269,1.182-2.668,1.678-3.212,3.409-.271.86-1.664,1.52-2.685,1.935-.764.31-1.165-.479-.7-1.1a8.107,8.107,0,0,1,1.906-1.585c1.509-1.069,3.046-2.1,4.566-3.15.07-.048.158-.141.155-.212-.048-2.549.756-5.056.068-7.659-.739-2.792-1.176-5.668-1.7-8.516a9.749,9.749,0,0,0-.468-2.38c-.175.392-.367.778-.525,1.179a277.567,277.567,0,0,0-15.118,55.54,374.037,374.037,0,0,0-4.811,50.552,531.967,531.967,0,0,0,1.41,55.859c1.213,16.24,2.586,32.47,3.621,48.719.674,10.581.917,21.192,1.266,31.79.488,14.743-.008,29.466-.917,44.181A292.214,292.214,0,0,1,250,400.359c-1.751,10.369-3.435,20.767-3.407,31.311.014,5.366.725,10.73,1.131,16.277-1.238,0-2.812.048-4.377-.042-.282-.017-.7-.558-.77-.917a78.408,78.408,0,0,1-1.368-17.789c.372-12.191,2.589-24.153,4.549-36.141a242.487,242.487,0,0,0,2.969-30.242c.4-10.787.812-21.59.62-32.377-.248-14.024-.86-28.053-1.723-42.055-1.091-17.7-2.7-35.377-3.88-53.078-.967-14.478-1.215-28.987-.866-43.493a378.366,378.366,0,0,1,4.532-51.288,283.208,283.208,0,0,1,15.973-59.234,1.317,1.317,0,0,0,.006-.979,8.255,8.255,0,0,0-1.81,1.311,41.362,41.362,0,0,0-6.26,10.75c-.987,2.558-2.445,4.91-5.584,5.758.725,3,1.382,5.981,2.188,8.925.369,1.348.869,2.628.344,4.055-1.461-.544-2.479-3.24-2.076-4.822a7.909,7.909,0,0,0,.24-2.8,37.729,37.729,0,0,0-.885-4.261,7.07,7.07,0,0,0-.508-1.167c-.135.023-.271.045-.4.065-.048.378-.1.756-.141,1.131a32.072,32.072,0,0,1-.437,3.339,6.9,6.9,0,0,0-.271,3.663c.206.73-.384,1.72-.739,2.541-.065.147-1,.166-1.077.017a5.615,5.615,0,0,1-.843-2.515c.039-.668.787-1.3,1.246-1.932.2-.274.623-.462.682-.747.392-1.8.711-3.621,1.055-5.434l-.671-.313a99.627,99.627,0,0,0-7.687,10.214c2.38,2.64,3.266,5.852,3.635,9.267a1.972,1.972,0,0,0,.508.917,3.735,3.735,0,0,1,.578,3.838,1.32,1.32,0,0,1-.86.728,1.008,1.008,0,0,1-.807-.584,7.973,7.973,0,0,1-.31-3.119c.857-3.55-.6-6.416-2.138-9.25-.5,2.405-1.052,4.746-1.466,7.109-.155.885.149,1.861-.048,2.73s-.6,2.042-1.779,1.63c-.333-.116-.274-1.54-.271-2.363a1.7,1.7,0,0,1,.516-.979c2.324-2.527,2.222-5.6,2-8.705a1.156,1.156,0,0,0-1.249-1.2c-1.34-.056-2.676-.152-3.976-.228a19.613,19.613,0,0,1-.722,3.333c-.217.541-.95.88-1.449,1.308A6.716,6.716,0,0,1,230.9,111a10.758,10.758,0,0,1-.18-2.341c-.948.6-1.763,1.182-2.634,1.655a29.442,29.442,0,0,1-3.209,1.512,1.006,1.006,0,0,1-.911-.406,1.324,1.324,0,0,1,.237-1.122,4.1,4.1,0,0,1,3.641-1.368,4.005,4.005,0,0,0,4.461-3.209c-2.318-.31-4.422-.175-6,1.954-.361.488-1.263.572-1.918.843-.155-.581-.29-1.165-.468-1.737-.612-1.954,1.2-2.056,2.138-2.831a6.917,6.917,0,0,0,1.5-1.354,15.724,15.724,0,0,0,2.857-8.409,1.858,1.858,0,0,0-.86-1.469c-2.3-.742-4.645-1.342-6.991-1.935a1.484,1.484,0,0,0-1.861.86.706.706,0,0,1-.257.33c-.792.426-1.6.835-2.4,1.246-.29-.654-.584-1.308-.9-2.014a5.014,5.014,0,0,1-4.639,1.235,4.84,4.84,0,0,1-1.438-.922c.358-.493.609-1.215,1.091-1.438,1.568-.725,3.2-1.038,4.788.1a1.07,1.07,0,0,0,.99.034c1.08-.773,2.107-1.622,3.136-2.465.161-.133.226-.378.581-1.01-1.585,0-2.874.051-4.157-.014a23.433,23.433,0,0,1-4-.448c-.386-.087-.73-.905-.832-1.441-.048-.254.454-.8.807-.917,1.481-.479,3.153-.575,4.467-1.32a52.323,52.323,0,0,0,5.409-3.976,1.03,1.03,0,0,0,.178-.217c2.535-3.28,2.7-2.795-.172-5.922-2.38,1.424-4.738,2.826-7.078,4.25a1.549,1.549,0,0,0-.482.635,4.847,4.847,0,0,1-4.453,2.611,1.572,1.572,0,0,1-1.134-.606,1.5,1.5,0,0,1,.265-1.269,5.48,5.48,0,0,1,3.925-1.915,7.591,7.591,0,0,0,2.744-.685,36.937,36.937,0,0,0,4.332-2.857c.372-.276.477-.914.657-1.289-3.691.685-7.121,1.317-10.55,1.963a1.716,1.716,0,0,0-.883.333c-1.791,1.87-4,1.537-6.173,1.139-.5-.093-.9-.7-1.348-1.063.44-.434.826-1.153,1.328-1.246,1.4-.259,2.995-.68,4.264-.268a12.265,12.265,0,0,0,6.492-.087,31.982,31.982,0,0,0,5.541-1.709c-2.287-1.3-4.148-3.178-7.112-2.992-1.28.082-2.656-.883-3.928-1.5a1.047,1.047,0,0,1,.649-1.915c1.751.2,3.528-.584,5.307.615.9.609,2.453.248,3.869.011-.688-.344-1.39-.666-2.061-1.041a15.11,15.11,0,0,1-3.043-1.858c-.5-.468-.513-1.458-.744-2.214.677-.155,1.354-.307,2.448-.558a27.021,27.021,0,0,0-3.336-.671,6.338,6.338,0,0,1-4.416-1.861,1.8,1.8,0,0,1-.482-1.466,1.6,1.6,0,0,1,1.331-.7c2.059.169,3.985.668,4.929,2.848a1.976,1.976,0,0,0,.753.73c2.38,1.568,4.763,3.133,7.174,4.656a7.655,7.655,0,0,0,1.7.5,19.639,19.639,0,0,0-5.547-6.929c-.973-.792-2.363-1.063-3.364-1.833-.809-.623-1.777-1.754-.86-2.744.8-.857,2.056-.2,2.744.547a20.772,20.772,0,0,1,2,3.06,13.186,13.186,0,0,0,.713,1.145c1.624,2.05,3.24,4.109,4.915,6.119a3.593,3.593,0,0,0,2.975,1.653,16.163,16.163,0,0,0,9.393-3.3,1.351,1.351,0,0,0,.451-1.111,3.862,3.862,0,0,0-4.89-2.69c-.578.175-1.323-.2-1.988-.327.279-.525.426-1.269.863-1.528a1.539,1.539,0,0,1,2.245.313,2.891,2.891,0,0,0,.885.84c1.105.618,2.242,1.176,3.449,1.8a12.439,12.439,0,0,0-.651-7.183,1.8,1.8,0,0,0-.821-.7c-2.346-1.277-4.69-2.563-7.073-3.765a1.771,1.771,0,0,0-1.475.051,19.611,19.611,0,0,1-10.454,2.82,4.468,4.468,0,0,0-2.716.73,4.517,4.517,0,0,1-4.577.059c-.367-.169-.84-.691-.809-1,.042-.406.5-1.046.846-1.1,1.224-.178,2.721-.6,3.674-.1a8.9,8.9,0,0,0,5.857.564,30.085,30.085,0,0,0,5.945-1.65c-2.555-.355-5.116-.668-7.659-1.086a24.5,24.5,0,0,1-2.828-.832,8.269,8.269,0,0,0-4.01-.592c-2,.347-3.83-.711-5.231-2.231a1.433,1.433,0,0,1-.33-1.235,1.505,1.505,0,0,1,1.167-.53,7.039,7.039,0,0,1,5.161,2.191c.265.259.471.646.787.773,4.67,1.864,9.424,3.2,14.52,2.025.082-.02.149-.107.451-.338a19.8,19.8,0,0,0-2.087-2.673c-1.926-1.771-3.906-3.463-6.765-3.629a5.5,5.5,0,0,1-2.332-1.159,1.059,1.059,0,0,1-.321-.967c.079-.231.575-.454.885-.451a3.7,3.7,0,0,1,3.446,1.771,2.17,2.17,0,0,0,.589.728c2.118,1.41,4.25,2.792,6.435,4.219-.262-1.021-.53-2.219-.908-3.381-.073-.223-.57-.333-.888-.446a13.661,13.661,0,0,1-2.47-.888,1.9,1.9,0,0,1-.767-1.461c.011-.282.823-.575,1.314-.776a4.368,4.368,0,0,1,1.179-.087c-1.4-1.771-2.067-3.858-4.329-4.749a4.906,4.906,0,0,1-2.874-3.621c-.293-1.266.327-1.819,1.545-1.424a2.039,2.039,0,0,1,.973.533,5.715,5.715,0,0,0,4.182,1.889,2.023,2.023,0,0,1-.1-.776c.192-.668.46-1.311.7-1.966.584.316,1.337.494,1.715.97a4.689,4.689,0,0,1,.993,4.467,1.971,1.971,0,0,0,.5,1.717c3.477,2.747,7.276,4.786,12.087,4.938a14.594,14.594,0,0,0-.262-1.76,11.539,11.539,0,0,0-3.959-5.685c-.4-.338-1.122-.3-1.5-.651a14.633,14.633,0,0,1-1.81-2.177c-.042-.059.443-.663.522-.629.871.369,2.236.629,2.468,1.275,1.06,2.975,4.275,4.481,4.986,7.673a11.877,11.877,0,0,0,.575-6.308c-.116-1.111-.508-2.191-.7-3.3-.4-2.256-2.245-3.525-3.5-5.192a14.633,14.633,0,0,1-1.582-1.932c-.51-1.007.028-1.65,1.134-1.562,2.631.212,3.514,1.015,4.484,3.511.313.8,1.2,1.385,1.923,2.177.3-1.227.51-2.112.725-3,.023-.09.107-.214.073-.259-1.072-1.427-1.9-3.218-3.3-4.168-1.61-1.091-3.663-3.711-3.432-5.716.118-1.021.784-1.306,1.686-.618a7.813,7.813,0,0,1,2.837,5.014,7.887,7.887,0,0,0,3.373,5.042,2.642,2.642,0,0,1,.838.885,11.619,11.619,0,0,0,6.7,5.237,19.538,19.538,0,0,0-.042-3.776c-.485-2.366-1.021-4.732-3.1-6.413a5.385,5.385,0,0,1-1.176-2.332,1.082,1.082,0,0,1,.31-.979,1.1,1.1,0,0,1,.993.118,3.951,3.951,0,0,1,1.715,3.223,6.81,6.81,0,0,0,.313,1.839c.674,2.169,1.4,4.323,2.1,6.466a12.727,12.727,0,0,0,2.022-5.2,38.793,38.793,0,0,0,.541-5.454,5.093,5.093,0,0,0-.6-2.225,5.943,5.943,0,0,1-.324-4.771c.175-.462.691-1.063,1.1-1.1.389-.037.981.488,1.238.914a5.308,5.308,0,0,1-.46,5.657,2.339,2.339,0,0,0-.3,1.142c-.262,2.879-.5,5.761-.776,8.92.338.3.874.245,1.227-.553.888-2.011,1.768-4.024,2.589-6.063a2.362,2.362,0,0,0-.1-1.218,5.051,5.051,0,0,1,1.066-4.354,1.614,1.614,0,0,1,1.286-.587,1.515,1.515,0,0,1,.823,1.12,4.753,4.753,0,0,1-1.774,4.619,2.314,2.314,0,0,0-.728.919c-.931,2.236-1.822,4.489-2.682,6.627,1.272,3,3.827,4.729,6.712,6.035,1.311.592,2.7,1.024,3.849,1.452-1.32-2.053-2.668-4.162-4.041-6.258a2.2,2.2,0,0,0-.657-.485,5.371,5.371,0,0,1-.479-.285,2.626,2.626,0,0,1-1.12-2.944,1.331,1.331,0,0,1,1.08-.609,2.54,2.54,0,0,1,1.957,2.6c-.513,2.854,1.373,4.54,2.972,6.269,2.171,2.343,2.831,2.332,5.722.948a17.675,17.675,0,0,0,6.354-5.231c.3-.392.257-1.035.479-1.512.386-.835.857-1.63,1.359-2.569a12.742,12.742,0,0,0-1.715-.541A19.521,19.521,0,0,1,268.57,12a4.889,4.889,0,0,0-1.777-1.167,4.719,4.719,0,0,1-2.721-2.865c-.133-.389-.11-1.114.127-1.277a1.638,1.638,0,0,1,1.41-.1,4.323,4.323,0,0,1,2.577,3.291,2.7,2.7,0,0,0,.5,1.241A19.023,19.023,0,0,0,281.5,18.448a15.126,15.126,0,0,1-2.975-9.6,1.9,1.9,0,0,0-.465-1.074,3.533,3.533,0,0,1-.5-3.937,1.9,1.9,0,0,1,1.241-.914c.35-.025.908.508,1.091.917a3.632,3.632,0,0,1-.254,3.624c-.172.265-.446.544-.454.821a14.408,14.408,0,0,0,3.635,10.544c-.226-1.294-.443-2.219-.539-3.156a16.885,16.885,0,0,1,.945-7.617,8,8,0,0,0,.8-4.281c-.265-1.619.821-2.9,2.177-3.818h.564A3.784,3.784,0,0,1,285.7,5.03c-.324.245-.756.462-.911.8-1.816,3.948-2.6,8.017-1.286,12.3.389,1.272.84,1.393,1.889.547a13.722,13.722,0,0,0,4.881-8.466,4.54,4.54,0,0,0-.192-2.14,3.869,3.869,0,0,1,.513-3.61c.691-.981,1.689-.826,2.149.265a3.9,3.9,0,0,1-.846,3.914,3.4,3.4,0,0,0-.925,1.582,14.822,14.822,0,0,1-4.955,8.917,2.517,2.517,0,0,0-.369.544c3.674.039,9.616-2.631,11.658-5.206a3.3,3.3,0,0,0,.35-.894,4.408,4.408,0,0,1,3.274-2.806c1.089-.259,1.653.457,1.176,1.481a4.761,4.761,0,0,1-3.319,2.592,5.356,5.356,0,0,0-1.954.871,20.124,20.124,0,0,1-8.976,4.447c-1.043.195-2.1.316-3.173.474.054,1.179.1,2.233.147,3.277a22.194,22.194,0,0,1,2.577-.84c.384-.079.843.2,1.269.319-.144.465-.144,1.12-.457,1.359-1.012.778-2.143,1.4-3.336,2.16-.451,2.609-.761,5.513-1.492,8.308-.626,2.394.324,4.154,1.289,5.8.113-1.881.251-3.9.347-5.925.045-.948-.051-1.9.011-2.845a6.452,6.452,0,0,1,.426-2.293c.206-.44.9-.649,1.373-.962.237.516.781,1.136.651,1.531-.336,1.012-1.122,1.872-1.458,2.885a12.459,12.459,0,0,0,.412,9.78,17.227,17.227,0,0,0,2.662-2.687c.508-.807.448-1.946.792-2.882a5,5,0,0,1,1.055-1.28,11.061,11.061,0,0,1,.567,1.526,1.115,1.115,0,0,1-.29.764c-1.122,1.421-2.27,2.826-3.412,4.233l.1.338a28.813,28.813,0,0,0,4.151-.86c1.4-.5,2.882-.945,3.579-2.637a2.13,2.13,0,0,1,2.645-1.086,1.228,1.228,0,0,1,.57,1.055,2.281,2.281,0,0,1-2.27,1.743,6.886,6.886,0,0,0-1.5.1c-2.171.809-4.315,1.692-6.387,2.515a37.045,37.045,0,0,0,3.948.274,6.1,6.1,0,0,0,3.942-1.1c.612-.482,1.915-.113,2.9-.048a2.342,2.342,0,0,1,.172.911,12.3,12.3,0,0,1-2.716.73,25.355,25.355,0,0,1-3.844-.037c-2.166-.149-4.326-.384-6.359-.567-2.417,4.439-4.884,8.959-7.343,13.482a4,4,0,0,0-.536,1.134c-.3,1.774-.547,3.556-.846,5.561a7.5,7.5,0,0,0,2.823-.051c4.236-1.757,8.409-3.669,12.574-5.595a2.013,2.013,0,0,0,.778-1.272c.539-2.214,1-4.45,1.495-6.675.2-.891.381-1.794.666-2.659a11.063,11.063,0,0,1,.973-2.138.92.92,0,0,1,.843-.288.879.879,0,0,1,.42.761,7.649,7.649,0,0,1-1.3,2.775c-1.131,1.12-2.592,4.732-2.138,6.621.933-3.153,4.154-4.3,5.293-7.14.22-.547,1.39-.747,2.16-1,.13-.042.685.634.632.728a7.648,7.648,0,0,1-1.531,2.03c-.451.364-1.331.178-1.819.522a11.576,11.576,0,0,0-4.949,7.205,4.527,4.527,0,0,0,4.735-.572c.477-.319.725-.976,1.193-1.32.254-.186.75-.042,1.136-.048-.023.389.087.866-.1,1.145a2.041,2.041,0,0,1-1.094.8c-1.554.4-3.13.7-4.7,1.043l-.1.353a28.427,28.427,0,0,0,3.477,1.985c1.3.533,2.625,1.024,4.171.268.564-.276,1.661.44,2.453.826a2.579,2.579,0,0,1-.259,1.244,10.235,10.235,0,0,1-2.625-.234c-.44-.107-.747-.691-1.19-.854-1.968-.725-3.962-1.376-5.806-2.005,1.607,1.712,3.048,4,6.074,4.238a2.518,2.518,0,0,1,1.514.9,4.743,4.743,0,0,1,.561,1.582c-.564-.017-1.286.178-1.661-.1-.725-.533-1.136-1.523-1.887-1.982a16.411,16.411,0,0,1-6.069-6.049L282.244,65.04a18.908,18.908,0,0,0,3.2,1.692c4.394,1.317,8.8,2.6,13.251,3.711,4.532,1.128,8.77,3.928,13.793,2.49,1.018-.29,1.337.381.75,1.726,2.758,0,5.234.042,7.71-.011,2.642-.056,3.3-.55,3.731-3.142a20.072,20.072,0,0,1,6.881-12.092,3.782,3.782,0,0,0,.863-1.489,4.55,4.55,0,0,1,2.735-2.84c.392-.144,1.128-.172,1.28.045a1.705,1.705,0,0,1,.127,1.418,4.268,4.268,0,0,1-3.074,2.637,3.6,3.6,0,0,0-1.452.663,19.341,19.341,0,0,0-6.87,12.755,14.43,14.43,0,0,1,9.078-3.1,2.7,2.7,0,0,0,1.418-.651,3.7,3.7,0,0,1,3.844-.274c1.015.646,1.007,1.616-.076,2.188a3.491,3.491,0,0,1-3.612-.127,2.648,2.648,0,0,0-1.509-.471,23.546,23.546,0,0,0-4.949.911,29.134,29.134,0,0,0-4.3,2.346l.178.474c4.247-1.328,8.271-.6,12.191,1.153a1.456,1.456,0,0,0,.8.068c2.31-.426,3.567.1,4.853,2.061v.564ZM298.931,80.4c-.807,1.134-.389,1.988.812,2.755,1.734,1.111,3.393,2.341,5.09,3.511a3.85,3.85,0,0,0,4.193.2,4.932,4.932,0,0,1,2.315-.293c.364.02.7.491,1.052.759-.285.327-.544.9-.857.933a15.924,15.924,0,0,1-2.859-.079,5.564,5.564,0,0,1-1.108-.324c-.048.135-.1.271-.147.409,1.943.776,3.906,1.5,5.818,2.343a2.51,2.51,0,0,0,3.486-1.074,22.191,22.191,0,0,1,7.4-7.882c-.375-2.053-.719-3.923-1.066-5.809-.4,0-.77.017-1.139,0-3.962-.22-7.969-.164-11.875-.756-3.091-.468-5.409.877-7.919,1.808,2.064.192,4.092.4,6.125.558a7.632,7.632,0,0,0,2.138-.079,2.513,2.513,0,0,1,2.865.891,1.252,1.252,0,0,1-.2,1.207,2.525,2.525,0,0,1-3.015.028c-.158-.087-.268-.259-.42-.364a7.579,7.579,0,0,0-1.754-1.131,12.317,12.317,0,0,0-7.053.172c-1.3.353-1.376,1.026-.962,2.064a3.484,3.484,0,0,0,3.26,2.129,2.689,2.689,0,0,1,1.345.567.939.939,0,0,1-.1.843,2.549,2.549,0,0,1-1.427.338c-.367-.059-.688-.5-.987-.818-.206-.211-.3-.539-.513-.733-.807-.733-1.644-1.43-2.5-2.171ZM233.752,47.173A5.285,5.285,0,0,1,234,45.4c.313-.558.871-1.3,1.373-1.342a2.045,2.045,0,0,1,1.517,1.125,9.013,9.013,0,0,1,.183,2.31c.073.6.1,1.376.468,1.72a13.314,13.314,0,0,0,2.436,1.469l.4-.22a12.827,12.827,0,0,0-.637-3.731c-.711-1.424-1.032-3.412-.11-4.724.214-.3.733-.713.945-.632a1.443,1.443,0,0,1,.8.97,4.634,4.634,0,0,1-.059,2.484c-.863,1.712-.508,3.471-.618,5.22a1.639,1.639,0,0,0,.95,1.681c3.3,1.968,6.683,3.835,9.825,6.038,2.439,1.709,5.178,2.092,7.9,2.733.158-1.864-1.091-2.916-2.143-4.078q-7.61-8.392-15.214-16.793a2.236,2.236,0,0,0-2.439-.694,31.144,31.144,0,0,1-5.843.525,28.117,28.117,0,0,1-4.072-.525c-.189,1.974-.369,3.872-.556,5.835,1.5.773,3.023,1.562,4.647,2.4ZM272.978,63.5c.164.051.327.1.488.155a35.9,35.9,0,0,0,1.686-3.751c.491-1.509.666-3.116,1.111-4.639,1.819-6.2,3.683-12.394,5.539-18.587a2.466,2.466,0,0,0-.465-2.837,2.3,2.3,0,0,1-.539-1.548,6.741,6.741,0,0,1,.493-1.763c.431.29.86.584,1.3.866.056.037.155.006.381.006.149-1.435.3-2.868.482-4.605-3.632,2.236-7.123,3.753-11.069,3.979-.257.014-.685.572-.694.883q-.19,9.42-.274,18.843a7.145,7.145,0,0,0,.33,2.03,20,20,0,0,1,1.173,3.708c.192,2.4.056,4.834.056,7.25ZM242.57,75.852c-.226-.358-.5-.77-.753-1.2a2.656,2.656,0,0,0-3.237-1.407c-3.652.826-7.335,1.514-11.018,2.191a1.3,1.3,0,0,0-1.275,1.461,17.2,17.2,0,0,1-2.857,8.564c-.234.378-.437.773-.556.981,1.974,1.12,3.855,2.149,5.694,3.246.917.547,1.825,1.765,2.625,1.678.919-.1,1.715-1.317,2.6-2.078-.268-.431-.688-.812-.7-1.2a2.224,2.224,0,0,1,.5-1.514,12.752,12.752,0,0,1,2.146-1.393c-1.731-.939-3.257-1.675-3.731-3.849a6.171,6.171,0,0,1,1.819.338,9.731,9.731,0,0,1,2.183,1.72c1.368,1.5,2.03,1.737,3.387.262a42.942,42.942,0,0,0,3.666-5.068c.68-1,.07-1.528-.832-1.875a3.6,3.6,0,0,0-3.892,1.069,3.168,3.168,0,0,1-1.407.7c-.093.028-.471-.44-.5-.705a1.59,1.59,0,0,1,1.9-1.5,2.307,2.307,0,0,0,.871.135c1.089-.149,2.171-.35,3.373-.55Zm33.1,23.637c-.761.688-2.326.852-2.109,2.654.561,4.608,1.072,9.221,1.627,13.829.127,1.055,1.52,1.982,2.4,1.466a12.388,12.388,0,0,0,3.4-2.583,27.162,27.162,0,0,1,8.578-7.369c.271-.138.612-.716.525-.9-1.263-2.662-2.281-5.555-5.533-6.545-1.359-.415-2.7-.866-4.143-1.328,1.6,1.568,3.006,2.981,4.456,4.348a6.4,6.4,0,0,0,1.633,1.159c1.122.519,2.05,1.729,1.692,2.6a1.486,1.486,0,0,1-1.136.708,2.606,2.606,0,0,1-2.214-2.366,1.567,1.567,0,0,0,.011-.279,3.639,3.639,0,0,0-.327-1.249,13.036,13.036,0,0,0-6.275-4.78c-.888-.341-1.286-.09-1.627.682a3.448,3.448,0,0,0,1.057,4.112,3.158,3.158,0,0,1,.745,1.39c.034.1-.42.5-.685.541a1.622,1.622,0,0,1-1.6-1.841,2.9,2.9,0,0,0,.116-1.01c-.161-1.074-.384-2.138-.587-3.232Zm-36.5,7.414c2.671-3.511,5.437-7,7.986-10.643.434-.623.158-2-.22-2.828-.186-.409-1.39-.581-2.081-.482-1.283.183-1.943,1.34-2.076,2.758-.048.522-.533,1-.818,1.506-.355-.491-.911-.945-1.012-1.486-.141-.744-.135-1.684,1.134-1.6a1.169,1.169,0,0,0,.651-.333c.826-.663,1.638-1.342,2.58-2.121-1.39-.781-2.947-1.655-4.5-2.53a20.569,20.569,0,0,1-1.3,2.107,1.165,1.165,0,0,1-.964.29c-.166-.031-.358-.539-.341-.818a20.948,20.948,0,0,1,.341-2.129,15.422,15.422,0,0,0-7.188,4.659c2.087,3.66,2.123,7.682,1.822,11.607l5.99,2.036Zm73.822-15.079c.1,1.557-.417,2.056-1.754,1.588a8.564,8.564,0,0,1-2.05-1.356c-.288-.211-.465-.606-.77-.756a12.886,12.886,0,0,0-7.952-1.331c-1.043,1.34-.482,2.411.57,3.2a23.777,23.777,0,0,0,2.781,1.41,5.177,5.177,0,0,1,1.229,1.018c.071.076-.18.657-.285.657a8.274,8.274,0,0,1-1.619-.2c-.161-.034-.3-.212-.429-.35q-1.734-1.925-3.454-3.855c-.158.031-.316.062-.477.09.121,1.641.149,3.3.406,4.918a4.715,4.715,0,0,0,1.055,2.535c1.841,1.791,2.03,2.149,1.06,4.25.42.468.854.95,1.325,1.472a18.411,18.411,0,0,1,10.888-1.729,52.061,52.061,0,0,1-.24-5.671,50.926,50.926,0,0,1,.917-5.519l-1.2-.369Zm-58.25-49.539c.1-.212.2-.42.3-.632-3.415-.572-4.571-4.295-7.747-5.206a.805.805,0,0,1-.327-.262c-.556-.657-1.2-1.416-.527-2.231.711-.857,1.63-.347,2.219.237a6.367,6.367,0,0,1,1.026,1.892c.2.434.206.993.485,1.348a13,13,0,0,0,6.571,4.351c.883.274,1.207-.073,1.478-.753.412-1.029-.321-3.249-1.23-4.081a3.448,3.448,0,0,1-.88-1.435c-.183-.567-.023-1.258-.242-1.8-.668-1.647-1.486-3.235-2.171-4.876a3.044,3.044,0,0,0-2.995-2.279c-1.858-.093-3.68-.9-5.643-1.424-.056,4.4-.556,8.745-3.3,12.431.446.5.778.88,1.114,1.258.008-.152.017-.3.028-.457a6.742,6.742,0,0,1,1.751-.462c1.461.017,2.242,1.306,3.339,1.923,2.059,1.159,4.481,1.672,6.754,2.453Zm43.048,59.141a3.641,3.641,0,0,1-.338,1.012,10.6,10.6,0,0,1-1.027.984c-.29-.384-.778-.744-.826-1.159a3.6,3.6,0,0,1,.262-2.03,1.246,1.246,0,0,0-.183-1.59c-2.938-4.007-5.846-8.04-8.77-12.058-.843-1.156-1.712-2.3-2.405-3.226,0,1.892-.008,3.9.011,5.911a2.1,2.1,0,0,0,.223.66c1.139,3.023,2.3,6.04,3.412,9.078.44,1.207.84,2.332,2.3,2.713.434.113.73.756,1.089,1.156-.409.279-.821.558-1.354.925.364.736.75,1.636,1.261,2.462a1.257,1.257,0,0,0,.99.431c2.555-.166,5.107-.384,7.659-.612.29-.025.7-.138.815-.344a1.007,1.007,0,0,0-.22-.835c-.905-1.131-1.853-2.231-2.9-3.477Zm-27.557-66.7q-4.628,3.443-9.577,7.121c1.038,2.634,2.349,5.4,3.2,8.3.784,2.673,2.814,4.27,4.36,6.334.88-2.995,2.27-5.7,2.081-8.908-.254-4.286-.062-8.6-.062-12.848Zm-26.263,4.76a6.519,6.519,0,0,0,.406.691c4.639,5.163,9.334,10.279,13.891,15.516a8.493,8.493,0,0,0,4.255,2.814c.147-.9.646-1.923.378-2.676-1.461-4.1-3.113-8.13-4.693-12.188-.307-.787-.838-1-1.692-1.117-2.262-.313-4.506-.776-6.729-1.311-1.867-.451-3.686-1.086-5.815-1.729Zm16.249.931c1.562-2.146,3.934-3.587,2.989-6.737a1.818,1.818,0,0,1,1.61-2.135,1.528,1.528,0,0,1,1.331.575,1.955,1.955,0,0,1-.908,2.417c-.327.248-.781.406-.976.73-1.122,1.858-2.185,3.756-3.409,5.885,1.641-1.232,3.175-2.346,4.661-3.519a3.563,3.563,0,0,0,1.173-1.365c.894-2.386,1.444-2.865,3.8-2.893-.059-.964-.121-1.926-.152-2.414-2.854-1.184-5.434-2.132-7.9-3.314-2.217-1.06-4.309-2.377-6.37-3.533-.939.854-1.59,1.444-2.183,1.98,2.1,4.74,4.16,9.4,6.339,14.328Zm-23.553,26.83a14.788,14.788,0,0,1-.742-1.9c-.079-.313.028-.925.206-.99a1.243,1.243,0,0,1,1.12.144c.539.615.891,1.393,1.4,2.047.293.381.711.891,1.114.931,4.8.474,9.613.883,14.424,1.272a9.268,9.268,0,0,0,1.774-.243c-.716-.976-1.1-2.107-1.8-2.363-5.053-1.833-10.166-3.514-15.284-5.161a2.054,2.054,0,0,0-1.52.558c-1.827,1.534-3.584,3.147-5.386,4.712a3.409,3.409,0,0,1-.829.395l.313.333c1.717.087,3.435.175,5.217.262Zm50.636,33.64a2.658,2.658,0,0,0,0-.522c-1.151-3.068-2.366-6.117-3.432-9.213-.468-1.356-1.407-2.081-2.885-2.93.138,2.3.138,4.346.417,6.353a5.745,5.745,0,0,0,3.841,4.549c-2.129-.2-3.971-.984-4.952-2.93a17.41,17.41,0,0,1-1.4-4.236c-.5-2.383-.722-4.819-1.227-7.2a6.143,6.143,0,0,0-2.476-3.931c0,3.325.006,6.407,0,9.487a6.891,6.891,0,0,0-.051,1.918c.513,1.653,1.153,3.268,1.819,4.865.152.367.6.838.933.863a22.764,22.764,0,0,1,9.416,2.924Zm-30.115-36.4c-1.362-1.537-2.233-3.029-3.528-3.883-3.942-2.606-8.045-4.969-12.089-7.419-.293-.178-.615-.31-.908-.457-.64,2.259-1.252,4.413-1.8,6.325,5.11,1.8,10.245,3.652,15.414,5.4a10.547,10.547,0,0,0,2.9.037Zm22.5,7.205c4.447,5.713,9.083,11.21,15.378,15,.479-1.475.953-2.933,1.5-4.614-4.007-3.088-8.088-6.212-12.146-9.368-1.385-1.077-2.831-1.737-4.729-1.018ZM241.32,86.938a12.7,12.7,0,0,0,2.171,1.255c2.544.869,4.958.076,6.624-2.611,1.98-3.189,3.607-6.6,5.386-9.907l-.254-.3a11.061,11.061,0,0,0-2.372.979c-2.857,2.05-5.589,4.272-8.48,6.269a7.884,7.884,0,0,0-3.077,4.323Zm45.436-18.719c-.073.121-.144.243-.217.364.254.572.347,1.376.787,1.678,3.742,2.572,7.538,5.062,11.342,7.544a1.226,1.226,0,0,0,1.007.02c2.493-1.167,4.963-2.383,7.276-3.505l-20.194-6.1Zm-10.135-9.876.462.321c.344-.271.818-.474,1.01-.826q3.672-6.785,7.253-13.615a1.429,1.429,0,0,0,.1-1.148c-.866-1.523-1.819-2.992-2.8-4.563-2.019,6.647-4.021,13.24-6.024,19.836Zm8.9,22.371c-.144.065-.285.13-.429.2a21.148,21.148,0,0,0,1.323,2.795c1.108,1.678,2.349,3.271,3.531,4.9,2.05,2.831,4.095,5.665,6.317,8.739.166-1.055.234-1.791.409-2.5a17.859,17.859,0,0,1,.728-2.27c.733-1.881.338-2.862-1.286-3.533a28.175,28.175,0,0,1-.894,2.967c-.135.327-.711.474-1.086.7-.192-.429-.609-.908-.527-1.275.186-.84.674-1.61.925-2.442.113-.378.127-1.041-.1-1.224-2.941-2.386-5.933-4.712-8.911-7.05Zm31.883,9.049a18.4,18.4,0,0,1,3.728-.446c1.9.149,3.756.685,5.651.914a4.077,4.077,0,0,0,1.878-.53c.1-.042.1-.666-.045-.888-1.447-2.152-2.936-4.278-4.433-6.441A20.219,20.219,0,0,0,317.407,89.763Zm-83.87-21.339c-3.125-.3-6.272-.984-8.057,2.631a22.9,22.9,0,0,1,.778,2.242c.228.917.705,1.024,1.543.818,1.858-.454,3.739-.829,5.615-1.2,1.706-.338,3.418-.629,5.127-.942l.034-.378c-.629-.2-1.3-.64-1.884-.553-2.2.336-3.065-.293-3.161-2.62Zm10.287,7.761c2.837-.9,5.51-1.867,8.257-2.558,1.447-.364,2.138-1.23,3.009-2.814l-12.515,1.875C243.021,73.932,243.424,75.065,243.825,76.185ZM232.46,105.141a18.086,18.086,0,0,0-1-9.746c-1.258,2.947-2.53,5.919-3.835,8.982C228.9,105.82,230.717,104.825,232.46,105.141ZM225.3,77.589a21.631,21.631,0,0,1-6.875,5.544c-.753.412-.9.823-.378,1.655.9,1.438,2.445,1.145,3.7,1.613.118.045.417-.183.527-.355A16,16,0,0,0,225.3,77.589Zm88.732,31.593a17.972,17.972,0,0,1,.262-1.991c.547-2.064-.237-3.223-2.284-3.26a17.074,17.074,0,0,0-2.944.073c-1.554.245-3.082.654-4.622.993.02.121.037.24.056.361a19.469,19.469,0,0,1,8.116,3.322,6.583,6.583,0,0,0,1.418.5Zm-32.221,10.262c.928-1.074,2.03-1.878,2.476-2.955a21.311,21.311,0,0,1,4.98-7.888c-.231-.034-.341-.087-.4-.054a11.3,11.3,0,0,0-1.086.64c-3.392,2.383-6.523,4.983-7.515,9.362l1.548.9ZM242.025,35.492a16.093,16.093,0,0,0,2.293-7.82c.195-2.938-.316-3.844-3.147-5.073-.133.584-.491,1.215-.347,1.695,1.094,3.655,1.949,7.321,1.2,11.2Zm41.482-13.02c-1.066.527-2.115.733-2.656,1.371A21.444,21.444,0,0,1,272.967,30a20.585,20.585,0,0,0,10.1-3.672,1.356,1.356,0,0,0,.423-.953c.059-.88.02-1.768.02-2.9Zm14.805,56.86c-3.909-2.676-7.628-5.257-11.4-7.763a7.75,7.75,0,0,0-2.092-.651c-.011.1-.023.206-.037.31,4.126,3.257,8.249,6.514,12.439,9.822.431-.685.8-1.266,1.086-1.717ZM223.261,69.016a5.9,5.9,0,0,0-6.339-3.7,2.421,2.421,0,0,0-.556.008c-.474.161-.931.367-1.4.556.347.378.629.883,1.055,1.111,1.517.812,3.144,1.427,4.608,2.318,1.057.643,1.836.682,2.628-.288Zm31.285,14.87c-2.067,2.58-4.114,5.178-6.21,7.735a1.947,1.947,0,0,0,.113,2.9,21.637,21.637,0,0,0,6.094-10.637Zm-11.094-2.121c3.026-2.267,5.93-4.444,8.832-6.621l-.22-.42c-2.462.854-4.932,1.689-7.377,2.594a1.407,1.407,0,0,0-.68.931C243.774,79.34,243.65,80.457,243.452,81.766ZM238.244,38.45a23.914,23.914,0,0,1-9.805-4.63c.33,1.452.572,2.634.883,3.793a1.022,1.022,0,0,0,.6.626,16.555,16.555,0,0,0,8.319.211ZM235.232,63.14c-3.243.694-6.379,1.362-9.687,2.067.206.446.415,1.506.77,1.557,1.266.183,2.778.42,3.838-.093a36.678,36.678,0,0,0,5.076-3.531Zm4.9,5.668c.587.883.984,1.568,1.475,2.174a1.168,1.168,0,0,0,.9.378c2.893-.392,5.781-.835,8.669-1.266,0-.1,0-.2-.006-.3-3.6-.324-7.2-.649-11.04-.993Zm57.934,14.743c.15,2.3-.116,4.368,2.236,5.307l3.44-1.283-5.677-4.027Zm-68.817,7.78a15.818,15.818,0,0,0-5.956-3.708c-1.2-.451-1.6-.161-1.576,1.142.006.406.037.812.048,1.049l7.484,1.517Zm-6.458-59.609c1.681,2,3.455,4.112,5.228,6.224.209-.11.417-.22.626-.333-.4-1.447-.781-2.9-1.207-4.334a.806.806,0,0,0-.5-.417c-1.359-.395-2.727-.756-4.143-1.139Zm76.577,69.152c-.482-2.972-.922-5.7-1.379-8.528C296.982,95.293,295.73,98.178,299.37,100.874Zm-45.856-10.84c-1.416,1.788-2.871,3.548-4.213,5.389-.262.358-.1,1.029-.147,1.9C252.107,95.46,252.888,92.786,253.514,90.034Zm40.219,16.81c.008.1.014.192.023.288l4.38,1.872,2.013-2.592c-2.422.164-4.419.3-6.416.431ZM236.36,68.655c1.117,2.208,3.133,3.376,4.78,2.775A3.808,3.808,0,0,0,236.36,68.655Zm61.66,20.008c-.237-1.994-.462-3.909-.691-5.823-.141-.014-.282-.031-.426-.045-.293.807-.629,1.6-.874,2.425-.66,2.217-.5,2.482,1.988,3.443Zm26.728-7.349c1.086-.536,1.9-.942,2.713-1.342-1.17-1.111-2.273-2.16-3.706-3.519.369,1.81.66,3.232.993,4.859ZM217.429,59.9c-.048.068-.1.133-.147.2.431.626,1.148,1.215,1.235,1.887.192,1.461,1.21,2.073,2.16,2.82l1.06-1.7c-1.449-1.077-2.879-2.143-4.309-3.206Zm91.952,30.857.045-.169a26.416,26.416,0,0,1-3.333-1.731c-1.734-1.23-3.218-.5-4.506.085,2.482.578,5.135,1.2,7.792,1.816ZM276.094,98.17c-.525-1.224-1.018-2.38-1.65-3.858-.369,1.81-.66,3.249-.981,4.833l2.634-.976Zm-29.41-6.619c.485-.759.987-1.545,1.472-2.307l-4.193-.347C244.879,89.791,245.759,90.652,246.684,91.551ZM273.79,113.9q-.482-4.217-.967-8.432A13.486,13.486,0,0,0,273.79,113.9ZM238.45,51.425c.116,2.025.226,3.962.353,6.19.352-1.418.561-2.634.967-3.779C240.269,52.426,239.716,51.749,238.45,51.425Zm7.4-26.886c1.472.454,2.857.88,4.241,1.308.023-.073.045-.147.065-.22l-3.847-2.922c-.147.589-.271,1.08-.46,1.836Zm-12.591,81.07c-.364,2.166,1.12,1.839,4.363,1.3Zm-4.89-63.036h.358c0-1.179.037-2.363-.034-3.542-.011-.2-.485-.378-.744-.567-.172.268-.53.575-.482.792.243,1.117.592,2.211.905,3.314ZM244.1,90.11c.056-.07.11-.144.166-.214q-1.578-1.324-3.158-2.645l-.443.248c.149.4.18,1,.471,1.176a32.652,32.652,0,0,0,2.967,1.433Zm55.69,20.355c.414-1.193.775-2.231,1.134-3.266-.076-.039-.155-.076-.231-.116-.654.812-1.308,1.622-2,2.482.417.341.694.57,1.1.9ZM237.832,87.784c.056.152.116.3.172.457.852-.327,1.7-.654,2.659-1.021Q239.507,86.134,237.832,87.784Zm5.22-7.467c-.854,1.159-1.624,2.205-2.623,3.559C242.009,82.95,243.213,82.223,243.052,80.316ZM224.874,67.688l-2.541-1.466Q223.924,68.718,224.874,67.688Z" transform="translate(-145.843)" fill="#fff"/>
    <path id="Path_7695" data-name="Path 7695" d="M67.159,684.079q-1.083,1.341-2.169,2.679c.062.172.121.344.183.516a20.008,20.008,0,0,0,3.6-.268c2.07-.522,4.154-1.063,5.682-2.811a2.824,2.824,0,0,1,3.032-.829,3.108,3.108,0,0,1-2.812,2.414,19.354,19.354,0,0,0-2.792.7c-1.686.5-3.361,1.043-5.31,1.653,2.14.493,4.052.8,6.04.056a6.863,6.863,0,0,1,2.14-.463c.35-.011.716.429,1.074.663-.316.3-.584.753-.962.883a4.314,4.314,0,0,1-1.664.135c-1.227-.079-2.459-.172-3.674-.361a20.385,20.385,0,0,1-3.954-.849,1.938,1.938,0,0,0-2.163.178c-.547.437-1.162.79-1.748,1.182-2.329,1.565-2.744,2.823-1.8,5.646a29,29,0,0,1,2.524-2.028c.293-.189.885,0,1.3.133.155.051.195.448.288.688-.412.1-.829.18-1.238.29a5.46,5.46,0,0,0-1.782.539c-1.12.818-1.029,1.774.265,2.233a29.514,29.514,0,0,0,4.32,1.049c1.2.234,1.867-.5,2.4-1.492.508-.948,1.151-1.819,1.695-2.744a13.367,13.367,0,0,1,1.018-1.909,17.559,17.559,0,0,1,2.16-1.977,2.247,2.247,0,0,1,.508.46,7.627,7.627,0,0,1-1.661,2.242,8.125,8.125,0,0,0-3.314,4.805c.773-.694,1.345-1.179,1.884-1.7,1.184-1.148,2.809-1.732,3.737-3.291.378-.637,1.692-.728,2.6-1.012a1.974,1.974,0,0,1,.372.711,18.127,18.127,0,0,1-2.29,1.678,3.7,3.7,0,0,1-1.345.18c1.588,2.812-1.379,2.735-2.6,4.185,1.01-.214,1.664-.352,2.318-.488a21.544,21.544,0,0,1,2.958-.567c.852-.051.967.615.431,1.1a3.441,3.441,0,0,1-1.92,1c-1.712.048-2.783,1.136-4.374,2.157,2.546.6,4.69,1.136,7,.429a8.881,8.881,0,0,1,2.888-.107.873.873,0,0,1,.6.618.9.9,0,0,1-.553.685,11.456,11.456,0,0,1-2.752.18c-1.311-.124-2.6-.448-3.9-.674-1.224-.214-2.448-.415-3.734-.632.544,1.244,3.119,2.549,4.535,2.538a5.132,5.132,0,0,1,2.123.51c.319.147.437.722.646,1.1a3.7,3.7,0,0,1-1.255.372,3.285,3.285,0,0,1-1.433-.524c-1.712-1.066-3.392-2.183-5.053-3.26-1.627,1.65-1.672,2.081-.073,3.471,1.362,1.184,2.744,2.369,4.794,2.236.987-.062,2.5,1.452,2.121,1.83a6.939,6.939,0,0,1-2.42,1.339A4.783,4.783,0,0,1,72,711.492c.666.826,1.145,1.424,1.444,1.791,1.255-.09,2.355-.214,3.455-.209.248,0,.5.457.742.705-.254.242-.474.632-.767.7a4.76,4.76,0,0,1-1.785.073,10.534,10.534,0,0,0-5.86.211c-3.359,1.356-3.243,1.548-1.763,4.552A6.107,6.107,0,0,0,70.5,722.5c.567.245.823,1.23,1.179,1.9.028.054-.384.44-.429.412a6.318,6.318,0,0,1-1.737-1.249,26.2,26.2,0,0,1-1.658-2.84,15,15,0,0,0-2.028-2.879,42.3,42.3,0,0,1,.209,4.3c-.093,1.977,2.374,1.512,2.716,3.127-1.139.838-1.134,1.858-.338,3.017.2.285.124.756.175,1.142-.395.023-.874.2-1.162.034a5.2,5.2,0,0,1-1.717-1.379c-1.684-2.437-4.2-3.2-7.225-3.911,1.407,1.669,2.617,3,3.691,4.43a7.61,7.61,0,0,1,.756,2.011l-.682.33a7.287,7.287,0,0,1-1.021-1.861,7.2,7.2,0,0,0-3.694-4.757c-.141.1-.206.141-.2.152.835,2.566-.567,5.462,1.17,7.89a11.093,11.093,0,0,1,.739.987,23.991,23.991,0,0,1,1.314,2.589c.107.26-.161.668-.254,1.01a5.294,5.294,0,0,1-.981-.336c-.826-.482-1.622-1.012-2.431-1.526-.1.093-.2.186-.3.282.257.922.5,1.844.776,2.761a213.779,213.779,0,0,1,7.276,36.953c1.294,11.486,1.771,23.008,2.022,34.559.282,12.995.651,26,1.43,38.97a226.867,226.867,0,0,0,8.136,49.336,66.717,66.717,0,0,1,2.964,20.121c-.025,1.072-.144,2.14-.228,3.342-1.035.093-1.988.18-2.992.273,0-2.459.1-4.791-.017-7.112-.333-6.793-1.985-13.356-3.81-19.859a199.522,199.522,0,0,1-6.681-39.768c-.84-11.79-1.246-23.615-1.737-35.428-.448-10.784-.508-21.59-1.182-32.357a216.573,216.573,0,0,0-9.591-52.754c-.753-2.352-.97-2.5-3.246-2.411.778,1.354,1.619,2.851,2.5,4.323.206.341.682.556.8.905a3.767,3.767,0,0,1,.107,1.571c-.011.113-.733.319-.809.226-.321-.4-.75-.908-.73-1.359.127-2.744-.956-4.526-3.469-5.454a5.245,5.245,0,0,0,1.218,6.666c.11.087.265.161.313.276a7.157,7.157,0,0,1,.468,1.413c.02.113-.5.477-.587.423-.451-.274-1.105-.578-1.215-1-.6-2.293-1.058-4.625-1.528-6.779a4.275,4.275,0,0,0-.993,4.986,2.65,2.65,0,0,1-.212,1.557c-.042.13-.773.214-.815.133a2.658,2.658,0,0,1-.462-1.478c.316-1.43.8-2.82,1.221-4.213-2.583-1.238-4.176.364-5.784,1.839a4.582,4.582,0,0,0-.818,1.249c-.513.962-1.148,1.667-2.656,1.072a12.131,12.131,0,0,1,1.678-1.582c1.094-.708,2.476-1.083,2.219-2.874-.045-.324.527-.711.744-1.105.279-.513.485-1.063.313-1.362-.728-.6-1.458-1.19-2.332-1.906a10.532,10.532,0,0,1,.212,1.779,7.423,7.423,0,0,1-.364,1.523c-.415-.107-.829-.237-1.249-.319-.333-.065-.942-.166-.973-.085a2.308,2.308,0,0,0-.144,1.258c.1.429.618.809.609,1.2a2.106,2.106,0,0,1-.623,1.4,1.247,1.247,0,0,1-1.2-.206c-.288-.513-.6-1.523-.358-1.734,1.4-1.255.925-2.783.871-4.264l-.358-.2c-.446.866-.894,1.732-1.334,2.6-.062.124-.037.327-.127.395A16.226,16.226,0,0,1,32.177,734c-.065.037-.541-.417-.508-.482a5.486,5.486,0,0,1,.979-1.585c1.213-1.125,2.524-2.149,3.768-3.243a1.232,1.232,0,0,0,.29-.742,9.551,9.551,0,0,0-1.32-5.936,1.077,1.077,0,0,0-.976-.336,3.291,3.291,0,0,0-1.8,3.184,4.881,4.881,0,0,1-.324,1.5c-.276-.107-.792-.217-.79-.321a3.748,3.748,0,0,1,.257-1.655c.547-1.035,1.241-1.994,1.92-3.054a7.762,7.762,0,0,0-5.313,1.215,1.722,1.722,0,0,0-.609.711c-.716,1.458-1.526,1.717-3.023.908a2.361,2.361,0,0,0-.257.324c-1.452,2.719-1.354,2.614.914,4.729a27.194,27.194,0,0,1,3.319,4.292,24.959,24.959,0,0,1,1.5,2.617,1.884,1.884,0,0,1-.13,2.623c-.457-.9-1.153-1.63-1.142-2.349.048-2.865-1.59-4.774-3.4-6.621a10.834,10.834,0,0,0-1.283-.981c-.259,2.09-.46,4.131-.8,6.148a3.223,3.223,0,0,1-1,1.387c-.065.068-.756-.248-.747-.352.045-.567.028-1.348.381-1.647,1.957-1.655,1.8-3.691,1.23-5.894A9.459,9.459,0,0,1,19.9,733.6c-.389.316-.409,1.086-.8,1.4a4.083,4.083,0,0,1-1.633.575c-.087.023-.412-.414-.375-.474a5.131,5.131,0,0,1,1.063-1.37c.384-.29,1.035-.217,1.424-.5a6.957,6.957,0,0,0,3.156-5.657,4.057,4.057,0,0,0-4.487,2.163,9.927,9.927,0,0,1-1.607,2.38c-.251.276-.891.2-1.354.288-.008-.431-.172-.953.014-1.272a5.749,5.749,0,0,1,1.266-1.148c.429-1.176.919-2.513,1.407-3.849-.1-.149-.2-.3-.3-.448-1.156.336-2.31.674-3.469,1a17.7,17.7,0,0,1-2.028.524c-.321.051-.942-.07-.973-.217a1.66,1.66,0,0,1,.212-1.134,1.722,1.722,0,0,1,.888-.64,6.039,6.039,0,0,0,4.354-5.781,7.078,7.078,0,0,0-6.571,4.253c-.251.677-1.08,1.142-1.669,1.678-.011.011-.527-.454-.5-.5a19.343,19.343,0,0,1,1.441-2.025c.22-.262.666-.324.914-.573a13.933,13.933,0,0,1,5.324-3.435,5.667,5.667,0,0,0-6.1,1.272,7.665,7.665,0,0,1-2.465,1.041c-.152-.138-.307-.274-.46-.412.338-.736.479-1.8,1.055-2.152,1.734-1.072,2.208-2.8,2.93-4.473a2.4,2.4,0,0,0-3.119-.206,15.664,15.664,0,0,1-2.854,1.6,4.993,4.993,0,0,1-1.985.127,1.5,1.5,0,0,1-.158-.8,6.55,6.55,0,0,1,1.853-.776,23.6,23.6,0,0,1,2.764-.206c-.008-.118-.02-.234-.028-.353-.037-.028-.073-.059-.11-.087-.55-.392-1.1-.781-1.633-1.2-.017-.014.245-.513.327-.5a15.062,15.062,0,0,1,2.233.536c.195.065.276.46.519.905.956-1.151,1.661-2,2.391-2.871a7.574,7.574,0,0,0-8.2,1.545,5.446,5.446,0,0,1-2.18.956,2.76,2.76,0,0,1-.321-.719A14.1,14.1,0,0,1,2.068,710.8c.392-.195.945-.076,1.328-.279a9.627,9.627,0,0,1,6.576-1.165,6.076,6.076,0,0,0-6.582-1.077,3.236,3.236,0,0,1-1.616.133.913.913,0,0,1-.609-.635c-.025-.24.243-.572.468-.761a16.251,16.251,0,0,1,1.816-1.356,7.329,7.329,0,0,1,1.512-.691c.852-.3,1.723-.536,2.735-.846a6.6,6.6,0,0,0-4.656-3.192,6.386,6.386,0,0,1-1.853-.95c-.025-.014.183-.637.3-.646.8-.054,1.878-.347,2.374.051,2.3,1.847,4.478.964,6.706.031a3.954,3.954,0,0,0,.776-.609c-1.136.079-2.154.22-3.17.186A3.833,3.833,0,0,1,6.87,698.4c.35-.307.685-.637,1.058-.917a2.738,2.738,0,0,1,.654-.265,7.4,7.4,0,0,0-5.688-.51,6.281,6.281,0,0,1-2.507-.149,2.282,2.282,0,0,1-.056-.688,17.342,17.342,0,0,1,2.631-.336,7.494,7.494,0,0,1,1.582.392c1.72.384,3.443.75,5.163,1.131.3.068.6.166,1.173.327-.99-1.455-1.932-2.465-3.463-2.795a13.888,13.888,0,0,1-2.933-.838c-.468-.217-.711-.911-1.058-1.39a6.172,6.172,0,0,1,1.641-.212,13.377,13.377,0,0,1,2.637.682c.685.248,1.3.68,1.968.99.575.268,1.176.479,1.768.719.141-.076.282-.149.42-.226-.457-1.712-.911-3.423-1.438-5.395-1.841.7-3.4,1.365-5.014,1.861a7.488,7.488,0,0,1-2.281.09,1.7,1.7,0,0,1-.1-.685c.753-.288,1.616-.866,2.281-.7,1.712.44,3.082-.262,4.557-.742l-2.013-2.417c-.5-.133-1.737.392-1.6-.945a18.311,18.311,0,0,1-2.4-1.01c-.243-.141-.226-.725-.327-1.105a5.122,5.122,0,0,1,1.134-.254,1.068,1.068,0,0,1,.742.355c2,2.56,4.58,1.277,7.132,1.348a8.012,8.012,0,0,0-6.269-3.776,6.276,6.276,0,0,1-2.214-.612.78.78,0,0,1-.251-.711.766.766,0,0,1,.609-.42,5.949,5.949,0,0,1,1.872.409,25.789,25.789,0,0,1,2.989,1.664c1.365.869,2.685,1.81,3.956,2.679A6.093,6.093,0,0,0,9.7,679.228c-.31-.09-.722-.144-.888-.364a12.037,12.037,0,0,1-.891-1.61,10.2,10.2,0,0,1,1.6-.073,3.655,3.655,0,0,1,2.374,1.681c.776.917,2.186,1.3,3.319,1.912.147-.121.29-.243.437-.361a6.466,6.466,0,0,0-.646-1.339c-.761-.945-1.593-1.836-2.417-2.733a9.335,9.335,0,0,0-.9-.8c-.068-.059-.209-.059-.245-.124-.4-.742-.8-1.489-1.145-2.253a1.953,1.953,0,0,1,.572-.4c.553.581,1.4,1.139,1.52,1.819.338,1.957,1.717,2.969,3.218,4.427.113-1.647.186-2.874-.558-4.067a15.417,15.417,0,0,1-1.241-2.625c-.3-.778.2-1.139.854-.908a3.21,3.21,0,0,1,1.368,1.1,17.112,17.112,0,0,1,1.416,2.315c.756,1.421,1.464,2.865,2.219,4.349a9.958,9.958,0,0,0,.99-6.937c-.059-.273-.491-.491-.784-.68a11.641,11.641,0,0,1-1.435-.849c-.234-.2-.265-.646-.389-.979a7.634,7.634,0,0,1,.964-.33c.519-.107,1.049-.161,1.574-.237.1-.147.209-.3.31-.443a4.583,4.583,0,0,1,.609,1.6,1.583,1.583,0,0,0,1.151,1.675,10.21,10.21,0,0,0,5.95.956,9.963,9.963,0,0,1-4.484-5.3c-.234-.553-1-.874-1.241-1.427a4.611,4.611,0,0,1-.1-1.867c0-.068.513-.234.581-.161a4.405,4.405,0,0,1,1.052,1.39c.186.536-.073,1.227.113,1.763a8.387,8.387,0,0,0,4.673,5.31c.936-2.614-.558-6.977-2.693-8.59-.651-.491-.9-1.523-1.289-2.327a2.474,2.474,0,0,1,.564-.426,23.015,23.015,0,0,1,1.731,2.194c.234.355.161.914.389,1.277a11.416,11.416,0,0,1,2.067,6.946,6.581,6.581,0,0,0,.313-6.886c-.028-.039-.082-.07-.087-.11-.068-.792-.138-1.585-.152-2.377a2.158,2.158,0,0,1,.776-.1,10.3,10.3,0,0,1,.713,2.29,14.051,14.051,0,0,1-.147,2.013c-.014.84.116,1.689.051,2.527a21.89,21.89,0,0,1-.471,2.476,7.984,7.984,0,0,0,4.3-2.862c1-1.244,2.16-2.4,1.825-4.323-.22-1.26,1.058-1.4,2.312-1.994-.206,1.306-.327,2.312-.53,3.3-.592,2.868.79,5,2.214,6.889-.025-2.146-.034-4.4-.09-6.664a21.766,21.766,0,0,1-.186-2.719c.042-.4.68-.747,1.046-1.117a5.392,5.392,0,0,1,.578,1.444,2.472,2.472,0,0,1-.358,1.331c-1.686,3.077-.815,5.925.68,9.03.711-1.255,1.286-2.076.259-3.3-.575-.685-1.481-1.968.333-2.687.192-.076.039-.874.166-1.3a2.435,2.435,0,0,1,.671-1.3c.2-.138.8.3,1.272.5,1.218-.386,1.091-1.077.55-2.188a7.217,7.217,0,0,1-.384-2.958c0-.274.488-.7.821-.784.243-.059.711.257.885.527.7,1.091,1.035,2.411.214,3.426a3.383,3.383,0,0,0-.646,2.29c-.073,1.509-.164,3.017-.087,4.6a7.4,7.4,0,0,0,1.966-3.9,8.623,8.623,0,0,1,.815-2.586c.093-.217.657-.364.956-.3a.89.89,0,0,1,.44.764,10.177,10.177,0,0,1-.973,2.532c-.962,1.559-2.535,2.913-2.953,4.577-.316,1.263.764,2.879,1.224,4.337.147-.042.293-.085.44-.13.293-1.76.522-3.536.911-5.276a6.765,6.765,0,0,1,1-1.751l.615.262a5.631,5.631,0,0,1-.6,1.929,6.905,6.905,0,0,0-1.207,6.1,7.634,7.634,0,0,0,3.486-3.26c.228-.477.784-.8,1.01-1.272.451-.953.759-1.971,1.159-2.95a21.659,21.659,0,0,1,1.159-2.518,1.125,1.125,0,0,1,.953-.293c.147.023.386.615.3.821a8.591,8.591,0,0,1-1.531,2.876,3.838,3.838,0,0,0-1.167,4.574c.437-.68.722-1.179,1.06-1.636a6.233,6.233,0,0,1,1.368-1.6c.412-.265,1.094-.113,1.655-.144a4.637,4.637,0,0,1-.592,1.621c-2.231,2.406-2.524,5.2-1.833,8.232a3.535,3.535,0,0,0,.29.6c.835-1.557,1.551-3.04,2.417-4.43.31-.5.973-.781,1.475-1.162l.485.51a7.523,7.523,0,0,1-1.311,1.461,6.2,6.2,0,0,0-2.693,4.819,11.041,11.041,0,0,0,6.819-3.584c.192-.192.1-.682.107-1.032a5.554,5.554,0,0,1,.037-1.777,5.832,5.832,0,0,1,1.167-1.438c.282.434.561.871,1.012,1.565.527-.361,1.142-.84,1.81-1.221a7.377,7.377,0,0,1,1.368-.468,3.506,3.506,0,0,1,.056,1.421,6.4,6.4,0,0,1-1.156,1.554c-.767.883-1.565,1.737-2.329,2.58.705.437,1.114.691,1.52.945-.347.4-.62.931-1.058,1.17-1.376.764-1.4.722-1.489,2.513.7-.589,1.387-1.173,2.078-1.76l.1.1Zm-8.226,18c-.065.367-.127.736-.192,1.1.116.093.228.186.344.282q1.07-.9,2.143-1.8c-.113-.166-.228-.33-.341-.5l-2.005.964c-.257-.11-.539-.35-.77-.313-1.6.268-3.184.592-4.774.9a17.476,17.476,0,0,0,3.068.462c1.08.13,2.011.023,2.53-1.1Zm-1.1,13.764c-.02.164-.037.33-.045.395,1.836-.35,3.686-.705,5.539-1.06-.006-.127-.008-.254-.014-.381l-1.63-.962c-.008.166-.02.333-.028.5a11.044,11.044,0,0,0-1.813.434,20.784,20.784,0,0,0-2.056,1.122c.124-.237.248-.471.429-.815-2,.767-3.37-.406-4.887-1.3L56,717.135c.646-.454,1.238-.874,1.833-1.294Zm.192-6.556a12.252,12.252,0,0,0-.618-1.514c-.226-.4-.522-.959-.885-1.049-2.115-.527-4.258-.936-6.729-1.455,2.315,3.308,5.843,4,8.849,6.015-.288-.905-.465-1.469-.64-2.028a6.6,6.6,0,0,0,3.663,3.61,7.641,7.641,0,0,0,.987.192A37.355,37.355,0,0,0,58.6,709.2c-.1-.085-.381.048-.575.082Zm4.343-10.536a6.535,6.535,0,0,1-1.492-.979,1.952,1.952,0,0,0-2.625-.414c-2.284,1.072-4.6,2.081-6.85,3.22-.592.3-.987.984-1.472,1.492l.274.333c.5-.059,1.01-.093,1.506-.186,2.253-.417,4.5-.869,6.757-1.269.736-.13,1.289-.279,1.455-1.184.079-.434.632-.781,1.246-1.483v2.16l2.71-.42c-.6-.51-1.077-.917-1.557-1.325,1.3.347,2.341,1.481,3.906,1.125.888-.2,1.066-.522.846-1.193-1.695-.135-3.28-.262-4.862-.392.054.172.1.341.158.513Zm-10-12.859c.75-.917,1.3-2.1,2.8-1.977a5.541,5.541,0,0,0,.936-.073c-.1-.285-.195-.573-.3-.857-.646-1.782-1.3-3.562-1.94-5.347-.116-.321-.178-.66-.245-.914-1.294.415-2.453.756-3.587,1.165a1.39,1.39,0,0,0-.8.64c-.815,2.318-1.593,4.65-2.315,7a1.321,1.321,0,0,0,.265,1.139,1.228,1.228,0,0,0,1.108-.02c1.59-.88,3.187-1.748,3.429-3.9.048-.434.773-.815,1.235-1.153.07-.051.615.341.592.4a3.982,3.982,0,0,1-.7,1.419c-1.018,1.041-2.121,2-3.483,3.254l2.022-.395a18.327,18.327,0,0,1-2.984.993,1.535,1.535,0,0,0-1.416,1.269c-.53,1.937-1.131,3.858-1.582,5.812a13.156,13.156,0,0,0-.028,2.676c.784-.5,1.39-.688,1.695-1.1,2.6-3.528,5.144-7.092,7.758-10.727a13.7,13.7,0,0,0-1.433.242,7.111,7.111,0,0,0-1.021.451ZM24.016,702.62l.025.028c-.68-.087-1.359-.211-2.042-.248-.443-.023-.928.214-1.328.1-1.066-.3-2.081-.8-3.15-1.077a1.507,1.507,0,0,0-1.117.434c-2.081,1.884-4.128,3.8-6.232,5.756.268,1,.437,2.107,1.853,2,1.379-.1,2.75-.316,4.016-.468-.353-.4-.671-.764-.987-1.125.539-.192,1.258-.705,1.59-.522,1.858,1.038,3.6.327,5.259-.3,3.435-1.294,6.8-2.775,10.194-4.179l-.017-.406H24.016ZM36,707.16a5.039,5.039,0,0,1-1.669.093c-1.424-.378-2.248.412-3.147,1.275-2.668,2.566-5.381,5.084-8.074,7.628-.392.372-.7.894-1.156,1.128-1.472.756-2.995,1.407-4.3,2.008.353,2.163.674,4.131,1.01,6.187,1.207.316,2.586.674,3.872,1.01.964-1.771,1.887-3.466,2.676-4.918-.637-.44-1.193-.821-1.748-1.2.728-.262,1.452-.527,2.183-.778.076-.025.189.073.271.054.437-.1,1-.1,1.286-.37,1.695-1.619,3.345-3.285,4.972-4.972,1.932-2,4.14-3.855,3.824-7.143Zm29.723,8.175c1.692-1.354,3.232-2.583,4.526-3.618-.905-1.954-1.9-3.844-2.645-5.829-.293-.784-.578-1.159-1.376-1.227-1.912-.161-3.824-.358-5.736-.533-1.562-.141-1.808.048-2.217,1.627a19.835,19.835,0,0,1,2.422.031c.344.042.663.406.948.671.059.056-.1.471-.118.468a4.414,4.414,0,0,1-.976-.226c-.462-.183-.914-.615-1.348-.589-.606.039-1.557.037-1.382,1.1.2,1.2,2.594,3.359,3.728,3.6a17.174,17.174,0,0,1,2.267.8l-.11.344,1.447-.1.245.4c-.561.584-1.12,1.168-1.726,1.8l2.047,1.283ZM11.41,710.778c-.465,1.695-.462,3.452,1.861,4.427a4.52,4.52,0,0,1,1.512,1.447c1.994,2.513,1.743,2.42,4.938.8a5.047,5.047,0,0,0,.725-.429,6.241,6.241,0,0,0,2.769-5.643c-.248.415-.364.6-.471.784-.68,1.2-1.3,2.437-2.067,3.581-.214.321-.843.369-1.28.544.062-.491.1-.99.2-1.472.031-.135.268-.262.434-.324,1.822-.657,2.31-2.208,2.814-3.979-.6.245-1.007.406-1.6.646l2.005-1.878c-1.277-.268-2.157-.711-2.922-.564-2.916.567-5.8,1.323-8.934,2.064ZM24.275,682.5a6.027,6.027,0,0,1,.031-1.684c.183-.553.694-1.495.9-1.452a3,3,0,0,1,1.926,1.029,5.5,5.5,0,0,0,5.034,2.882c-.268-.609-.572-1.193-.784-1.81-.355-1.041-.73-1.96-2.022-2.214-.454-.09-.809-.694-1.472-1.308l2.084-.231c-.31-1.45-.6-2.8-.8-3.714l-8.034-1.836a12.447,12.447,0,0,1-1.7,8.274c1.813.33,2.637,2.386,4.825,2.07ZM47.2,698a17.377,17.377,0,0,0,3.359-1.32c2.205-1.506,4.315-3.156,6.413-4.805a1.669,1.669,0,0,0,.572-1.246c-.085-.953-.426-1.881-.558-2.831a15.262,15.262,0,0,1-.02-2.1l.525-.025a2.677,2.677,0,0,1,.671,2.958,11.271,11.271,0,0,0-.3,2.431c1.4-.632,2.081-1.182,1.678-2.53-.124-.414.479-1.049.753-1.585.372.352.756.694,1.105,1.066.11.118.116.33.172.508,2.733-1.379,2.789-1.54,1.788-4.518-1.822.116-3.581.338-5.335.293a2.1,2.1,0,0,0-2.013.877c-2.716,3.7-5.462,7.386-8.17,11.1A8.193,8.193,0,0,0,47.191,698ZM37.538,666.3c-3.189,4.176-3.469,4.45-5.555,5.44-2.267,1.077-2.3,1.145-1.641,3.674a1.833,1.833,0,0,1,2.518,1.286c.6,1.7,2.05,2.273,3.463,3.251.333-1.638.744-2.978-.079-4.487-.3-.556.254-1.607.5-2.406a1.939,1.939,0,0,1,.917.051,7.932,7.932,0,0,1,.192,2.377c-.209,1.4-.623,2.758-.905,4.145a.747.747,0,0,0,.31.643.735.735,0,0,0,.685-.2,14.532,14.532,0,0,0,1.3-3.26c.288-1.568,1.551-2.6,2.907-2a15.01,15.01,0,0,1-4.047-7.961c-.031-.206-.367-.369-.567-.556Zm-1.492,31.184.634-.206a7.109,7.109,0,0,0-.023-1.785c-.68-2.532-1.418-5.048-2.174-7.558-.871-2.9-1.4-3.257-4.419-3.294a16.953,16.953,0,0,1-2.233-.195c-.764-.11-1.517-.3-2.276-.448-.1.135-.2.268-.307.4l10.8,13.082Zm20.933,19.636c.034.144.068.29.1.434a27.827,27.827,0,0,1,2.589,1.72c.279.228.319.823.338,1.258.008.155-.369.324-.57.488a10.161,10.161,0,0,0-.713-1.066,7.736,7.736,0,0,0-1.695-1.78c-.558-.333-1.249-.138-1.4.8-.147.905.415,1.024,1.038,1.139.259.048.53.051,1.111.1l-1.723.581a8.045,8.045,0,0,0,.928,1.6c.344.369.95.829,1.351.753a12.64,12.64,0,0,1,5.962.508,8.192,8.192,0,0,0,1.65.138,29.3,29.3,0,0,1-.522-3.466c-.031-1.111.223-2.228.24-3.344.006-.288-.4-.584-.623-.877-1.021,1.21-2.025,1-3.094.037a1.271,1.271,0,0,0-.953-.065c-1.342.319-2.676.688-4.013,1.041ZM23.164,690.784c.257.042.51.085.767.124.389-1.6,1.083-3.206,1.043-4.8-.02-.829-1.292-1.661-2.064-2.425a14.719,14.719,0,0,0-1.954-1.591c-2.135-1.475-2.132-1.447-4.123.316-.592.525-1.269.956-1.9,1.438a1.6,1.6,0,0,0-.243,2.4c2.016,1.6,4.1,3.113,6.165,4.659l.44-.544c-.838-.739-1.734-1.421-2.493-2.233a11.854,11.854,0,0,1-1.469-2.154.761.761,0,0,1,.155-.736c.24-.127.759-.158.871-.011a9.423,9.423,0,0,1,1.534,2.406,9.166,9.166,0,0,0,2.874,3.658c-.158-1.72-.186-3.37-1.433-4.76-.471-.527-.316-1.627-.4-2.47a1.553,1.553,0,0,1,.66-.178,8.087,8.087,0,0,1,1.122,2.287c.279,1.514.316,3.071.454,4.611ZM52.058,731.83a122.438,122.438,0,0,0-8.483-19.715,2.915,2.915,0,0,0-.18,1.7,33.172,33.172,0,0,0,1.28,3.714c1.87,4.484,4.106,8.86,3.773,13.982l3.612.316ZM43.4,715.663c-.18.039-.358.082-.539.121.065.742.107,1.486.195,2.225.462,3.889,1.672,7.716.931,11.706-.071.372.2.8.276,1.21.178.928.691,1.664,1.655,1.483,1-.186,2-.629,1.777-2.044a15.543,15.543,0,0,0-.2-2.231C46.173,723.962,44.774,719.817,43.4,715.663ZM38.426,681.3a9.844,9.844,0,0,0-1.506.747c-.527.381-.919.95-1.455,1.311a1.369,1.369,0,0,0-.62,1.8c.809,2.073,1.619,4.148,2.5,6.19.541,1.249,1.23,2.434,1.85,3.649l.556-.09a28.186,28.186,0,0,0-.017-3.088c-.381-3.39-.838-6.771-1.311-10.513Zm-10.3,38.256c2.222.265,4.332.516,6.441.77.556-1.559,1.244-3.11,1.647-4.735s.519-3.328.807-5.321c-3.15,3.288-6.038,6.306-8.894,9.286Zm-2.352-33.333c-.564,1.856-1.049,3.446-1.562,5.132,2.445,2.955,6.528,3.091,9.746,4.935C31.252,692.962,28.548,689.634,25.773,686.222Zm-10.925,7.467c1.822,1.966,2.806,4.523,5.959,3.768a4.961,4.961,0,0,1,2.078.243c1.207.268,2.4.6,3.818.967a6.819,6.819,0,0,0-3.517-4.047c-.79-.384-1.548-.835-2.318-1.255.048-.13.1-.259.141-.389-.694.076-1.568-.087-2.047.274a4.144,4.144,0,0,1-4.112.44Zm38.626,32.362a17.338,17.338,0,0,1,.412-3.164,4.337,4.337,0,0,0-1.038-4.709c-1.176-1.342-1.825-3.139-2.783-4.681a4.2,4.2,0,0,0-3.1-2.341c2.154,4.929,4.275,9.78,6.509,14.9Zm-6.128-49.235c-.152.087-.395.214-.623.364-1,.646-2.05,1.235-2.995,1.96-1.385,1.063-.51,2.222-.006,3.339a.23.23,0,0,1,.006.138c-.406,1.791,1,2.473,2.053,3.59.852-2.53,1.579-4.876,2.442-7.171.395-1.052.415-1.782-.88-2.219Zm10.4,15.423c-2.882,2.682-6.571,4.12-8.626,7.648.3.1.556.279.708.212,3.113-1.371,6.215-2.772,9.371-4.188C58.772,694.831,58.316,693.672,57.749,692.24ZM39.317,683.6c1.089,4.185.316,8.545,2.981,12.205a6.219,6.219,0,0,0,.694-2.473c-.045-2.332-.29-4.661-.355-6.994a2.1,2.1,0,0,0-1.351-1.923c-.525-.271-1.094-.457-1.968-.815Zm-17.16,24.263c1.207,1.371,1.218,1.418,2.6,1.024a63.638,63.638,0,0,0,6.8-2.124,17.01,17.01,0,0,0,3.356-2.456l-.234-.522a3.951,3.951,0,0,0-1.523-.1c-3.621,1.328-7.214,2.727-11,4.176Zm-1.1-15.138.025-.42c-2.231-.863-4.5-1.65-6.675-2.64-.6-.271-1.4-1.275-1.283-1.709.276-1,1.122-.217,1.743-.1.039.008.1-.085.2-.18l-1.325-1.131-3.091,2.437c.344.792.691,1.6,1.026,2.366,1.726-.733,2.445.626,3.15,1.275,1.151-.09,2.081-.24,3.012-.214C18.912,692.437,19.986,692.615,21.058,692.728Zm18.852,20.679-.477-.039c-1.277,3.02.527,6.839-2.25,9.295.88,1.576,1.692,3.023,2.5,4.47l.226-.042Zm-30.6-7.888c3.156-.257,5.121-2.084,6.892-4.332-1.613-.826-2.984-1.277-4.05.471-.144.234-.572.29-.863.44-1,.516-2.008,1.038-3.068,1.588Zm43.132,3.24-.313.313c1.06,1.506,2.008,3.11,3.206,4.5,1.348,1.557,2.953,1.6,5.062.217-2.154-2.631-5.437-3.243-7.955-5.028Zm-26.6-9.312c-1.249-.4-2.468-.742-3.652-1.179-2.659-.979-4.461-.124-4.684,2.264C22.3,701.687,24.25,701.489,25.84,699.448Zm-2.775,15.564.3.406c2.194-2.583,4.391-5.166,6.117-7.2-1.4.4-3.632,1.041-5.742,1.647-.228,1.762-.448,3.454-.668,5.146Zm-7.656,2.761-4.236-3.731c-.914,1.751-1.641,3.142-2.561,4.9l6.8-1.17Zm44.864-14.763c.048.1.093.209.141.313,2.194.214,4.385.432,6.884.677,0-.809.3-1.765-.054-2.287-1.12-1.675-2.8-.931-4.388-.68C63.149,703.009,61.44,702.693,60.273,703.009Zm-18.979,15.75-.372.068c0,2.081.028,4.162-.008,6.243-.037,2.281.248,2.747,2.91,3.88-.891-3.587-1.712-6.889-2.53-10.192ZM26,693.74c-.135.214-.271.429-.4.643a32.779,32.779,0,0,0,10.132,5.02,2.646,2.646,0,0,0-1.012-1.509c-2.879-1.433-5.806-2.778-8.714-4.154Zm.64,2.434c.321,1.072.341,2.231.787,2.428,2.214.981,4.54,1.709,6.827,2.527.079-.178.155-.353.234-.53C32.391,698.523,29.515,697.77,26.644,696.174Zm46.838,13.485c-1.774-1.2-3.531-2.389-5.288-3.576-.113.059-.228.116-.341.175.88,1.483,1.748,2.975,2.642,4.45.671,1.108,1.441.7,2.16.059a8.221,8.221,0,0,0,.829-1.108ZM48.97,704.405l8.3,1.6c.169-.606.341-1.215.558-2-2.913.011-5.739-.869-8.86.392ZM16.331,674.287c-.2.375-.44.618-.431.854.023.832.149,1.658.206,2.49.141,2.025.558,2.411,2.8,2.456a8.015,8.015,0,0,0-2.572-5.8Zm1.136,46.1c-1.173,1.782-2.279,3.46-3.528,5.361,1.308-.09,2.668-.186,4.351-.3C17.987,723.584,17.719,721.926,17.468,720.392Zm25.876-41.076c1.151-1.441,2.073-2.6,2.953-3.7l-1.356-2.036C43.339,674.271,42.586,676.639,43.344,679.315Zm12.924,47.856-.446.135c-.725,2.183-.152,4.264.558,6.379.513.124,1.052.257,2.078.508-.79-2.53-1.492-4.777-2.191-7.022ZM33.7,702.231c.051-.116.1-.231.155-.35-2.341-.761-4.678-1.52-7.092-2.3-.372.632-.733,1.241-1.19,2.016l8.127.637Zm21.029,27.726c.981-3.11,1.34-6.2.042-9.25C53.429,723.773,54.308,726.872,54.726,729.957ZM7.868,703.982c-1.373,1.19-2.558,2.219-3.756,3.257l4.007.316c.259-.609.5-1.173.787-1.853-.234-.386-.541-.9-1.038-1.723Zm58.044,22.78c.144-1.1-.017-2.039-1.083-2.462a10.5,10.5,0,0,0-5.527-.776C61.4,724.554,63.617,725.64,65.913,726.762ZM43.375,686.013c.144,2.372.274,4.532.4,6.689.079.008.155.02.234.028q.8-2.847,1.6-5.711c-.8-.361-1.424-.64-2.236-1.01Zm-11.788-1.551c.006-.116.014-.231.02-.344l-5.389-2.575c-.152.135-.3.271-.457.409.234.592.364,1.613.725,1.7,1.667.412,3.4.564,5.1.809ZM55.36,681.9l.31-.118q.152-3.371.3-6.74l-.5-.169c-.434.657-1.286,1.356-1.227,1.963A39.366,39.366,0,0,0,55.36,681.9ZM26.021,722.279a3.892,3.892,0,0,0,1.356.087c1.737-.612,3.446-1.306,5.022-1.915-3.7-.922-5.048-.575-6.379,1.827ZM9.171,702.612c-1.317-2.191,1.342-1.672,1.746-2.476-1.906.276-3.827.558-5.736.835.911.8,1.884,1.658,2.9,2.552l1.091-.914Zm7.34-4.98c.054-.158.1-.316.158-.474l-4.605-2.236c-.09,1.19-.152,1.985-.209,2.71h4.656Zm20.643,18.809c-1.8,2.707-1.926,4.535-.384,5.643C38.014,720.288,37.479,718.418,37.154,716.441Zm.838-35.871c1.808.316,2.321-.9,2.969-1.76,1.089-1.45,1.187-2.208.637-3.189Zm-6.872-2.022.271-.361c.369.214.962.353,1.066.66a3,3,0,0,0,3.838,1.607c-1.929-1.34-3.745-2.6-5.8-4.03l.629,2.123Zm11.215,5.835c-.068-1.309-.144-2.724-.217-4.143-3.192,1.148-2.809.513-2.6,1.87C40.676,683.046,41.5,683.715,42.335,684.383Zm-6.489-3.037c-1.314-.429-2.436-.8-3.652-1.193a3.466,3.466,0,0,0,2.194,3.378C34.85,682.838,35.31,682.152,35.846,681.346Zm37.991,17.349c-2.205-.959-4.038-.034-5.113,2.513C70.805,700.922,71.936,699.408,73.837,698.695Zm-59.708-14.67c.477-1.066.86-1.926,1.235-2.769-1.427-.657-2.685-1.235-4.3-1.982.781.978,1.354,1.588,1.8,2.281s.764,1.469,1.269,2.47Zm44.5.1c1.213-.152,2.112-.22,2.995-.386,1.963-.37,2.1-.573,2.011-2.64Zm-21.59,39.085c-.085.056-.166.116-.251.172.189,1.52.381,3.037.589,4.718.6-.251,1.176-.5,1.912-.809-.79-1.43-1.52-2.755-2.253-4.081Zm4.681,5.189c0,1.215-.045,2.49.023,3.756a5.987,5.987,0,0,0,.474,1.475c.127-.037.257-.07.384-.107.161-.764.31-1.528.488-2.29.372-1.6.113-2.115-1.368-2.837ZM16.063,696.131l.245-.375c-1.421-1.032-2.84-2.064-4.636-3.373.367,1.049.4,2.016.86,2.3A21.521,21.521,0,0,0,16.063,696.131Zm.713,2.109H11.87C13.855,699.907,14.868,699.882,16.777,698.241Zm1.368,30.109c1.376-.615,2.42-1.083,3.8-1.7l-3.669-.77c-.051.931-.087,1.591-.135,2.476Zm48.95-13.609c.045.059.087.118.133.18l4.112-1.255c-.231-.46-.46-.922-.781-1.562-1.227.936-2.346,1.788-3.463,2.64Zm-3.119-32,.35.169,2.6-3.641c-1.035.423-1.734.711-2.566,1.052C64.24,681.044,64.108,681.89,63.975,682.736ZM44.689,667.979v3.835C45.547,670.585,46.347,669.513,44.689,667.979Zm-28.7,20.6-.2.324a7.731,7.731,0,0,0,4.715,2.532Q18.25,690.009,15.993,688.582Zm-2.5-2.659c-.7-1.125-1.94-1.105-3.948,0Zm-4.348,8.463c.9.928,1.571,1.627,2.3,2.383.056-.578.113-1.187.178-1.856l-2.479-.527ZM13,686.645H10.184c.042.62.079,1.145.133,1.96.948-.694,1.667-1.218,2.682-1.96Zm41.815,32.227c.6-1.137-.062-2.369-1.912-3.432C53.5,716.514,54.1,717.589,54.813,718.872Zm-9.58-45.591c.606.781,1.083,1.4,1.559,2.019.13-.073.259-.144.392-.217-.245-.86-.491-1.717-.778-2.724l-1.173.925ZM37.228,692.8l-.395.175c.691,1.08.268,2.654,1.963,3.291q-.787-1.734-1.571-3.466Zm34.2,3.026c-2.09,1.286-2.115,1.345-1.162,2.422C70.681,697.383,71.056,696.605,71.429,695.827ZM40.5,680.207c1.839-.35,1.9-.434,1.664-2.453C41.562,678.633,41.02,679.431,40.5,680.207ZM9.115,713.018l1.622.5c.048-.849.085-1.514.141-2.5Z" transform="translate(0 -473.811)" fill="#fff"/>
    <path id="Path_7696" data-name="Path 7696" d="M425.839,502.572c-1.531-.025-3.032-.482-4.69.206a8.274,8.274,0,0,1-3.556.127c-.316-.023-.759-.573-.832-.945-.051-.251.384-.708.7-.9a4.256,4.256,0,0,1,4.616.3,4.159,4.159,0,0,0,.967.426c.039.017.093,0,.141.006,1.672.206,3.491.914,4.972.477,1.387-.409,2.3-2.214,3.632-3.074,2.549-1.647,5.225-3.1,7.893-4.551,1.562-.849,3.232-1.5,4.808-2.321a14.791,14.791,0,0,0,4.9-3.861,25.179,25.179,0,0,1,9.064-6.988,7.425,7.425,0,0,1,2.355-.257,7.335,7.335,0,0,1-.821,2.1c-2.772,3.384-6.009,6.385-10.146,7.8-4.85,1.653-9.25,4.174-13.779,6.421-2.253,1.12-4.123,3.031-6.1,4.667a1.487,1.487,0,0,0-.271,1.4c1.889,3.373,1.827,6.909,1.052,10.53a4.718,4.718,0,0,0,.039,2.665,4.093,4.093,0,0,1-1.162,4.137,1.274,1.274,0,0,1-1.091.355,1.179,1.179,0,0,1-.567-1,25.278,25.278,0,0,1,.959-3.454,25.5,25.5,0,0,0,1.241-2.876c.7-3.215.759-6.4-.987-9.546-.849,2.036-1.946,3.878-2.327,5.857-.234,1.229.017,2.575-.787,3.689-.581.8-1.2,2.16-2.3,1.54s-.257-1.873.124-2.775a4.176,4.176,0,0,1,1.145-1.576c2.259-1.833,2.49-4.554,3.24-7.078-2.129,2.005-4.678,3.514-5.756,6.52-.446,1.244-1.813,2.18-2.848,3.164-.242.231-.843.087-1.277.116a3.011,3.011,0,0,1-.023-1.184,6.23,6.23,0,0,1,3.607-3.714,1.9,1.9,0,0,0,.739-.358c1.65-1.712,3.277-3.446,4.974-5.245a21.978,21.978,0,0,0-10.132,4c-.781.522-1.213,1.551-1.968,2.135a8.043,8.043,0,0,1-2.4,1.086,1.075,1.075,0,0,1-.97-.307,1.115,1.115,0,0,1,.118-1.007,5.61,5.61,0,0,1,4.326-2.532,3.182,3.182,0,0,0,1.176-.251c2.642-1.269,5.268-2.572,7.995-3.911Z" transform="translate(-295.878 -345.537)" fill="#fff"/>
    <path id="Path_7697" data-name="Path 7697" d="M441.3,1001.576c-.6,1.483-1.2,2.93-1.748,4.4-.158.42-.059.959-.274,1.331a6.313,6.313,0,0,1-1.221,1.4,1.585,1.585,0,0,1-.671-.417c.209-.586.344-1.356.79-1.669,1.957-1.376,2.279-3.313,2.169-5.482a11.1,11.1,0,0,1-4.148,4.628c-.316.209-.448.688-.694,1.024-.572.773-1.218.947-2.809.513.826-.657,1.354-1.382,2.025-1.557,3.1-.809,4.487-3.063,5.4-5.88a6.083,6.083,0,0,0-6.179,3.542c-.039.085-.065.2-.135.242a11.25,11.25,0,0,1-1.39.832c-.076.037-.525-.4-.485-.5a3.122,3.122,0,0,1,.756-1.4,29.506,29.506,0,0,1,3.576-2.293,21.93,21.93,0,0,1,2.82-1.072,2.992,2.992,0,0,0-.637-.44c-2.183-.826-4.351-1.278-6.63-.189-.533.254-1.328-.037-2-.127a1.61,1.61,0,0,1-.006-.7,7.788,7.788,0,0,1,1.974-.406,14.121,14.121,0,0,1,2.448.274c1.951.327,3.9.688,6.1,1.08,2.606-4.822,7.467-7.975,11.858-11.613.976-.807,1.935-1.636,2.84-2.521a3.2,3.2,0,0,0,.733-1.292,11.277,11.277,0,0,1,4.379-5.857,3.984,3.984,0,0,1,1.407-.338,3.62,3.62,0,0,1,.048,1.416,10.762,10.762,0,0,1-4.949,5.713,3.171,3.171,0,0,0-.589.353c-3.539,3-7.149,5.925-10.569,9.055a49.72,49.72,0,0,0-4.255,5.025,1.477,1.477,0,0,0,.1,2.239,10.979,10.979,0,0,1,3.44,7.039c.082.79.657,1.517.826,2.312.068.316-.358.736-.561,1.108a3.618,3.618,0,0,1-.784-.877,2.45,2.45,0,0,1-.124-1.238,8.216,8.216,0,0,0-2.826-7.651Z" transform="translate(-308.534 -701.578)" fill="#fff"/>
    <path id="Path_7698" data-name="Path 7698" d="M556.079,673.076q-1.366-.169-2.733-.336c-.017.059-.034.121-.051.18,1.746,1.007,3.528,1.957,5.217,3.054a9.8,9.8,0,0,1,1.664,1.96,2.027,2.027,0,0,1-2.589-1.063c-1.269-2.03-2.874-3.446-5.451-3.305-.2.011-.406-.178-.761-.344a9.429,9.429,0,0,0,.787,7.225,5.966,5.966,0,0,1,.567,2.656c-2.256-.8-1.339-2.69-1.63-4.131-.31-1.537-.446-3.11-.654-4.653-.62,1.464-1.345,2.947-.815,4.729a2,2,0,0,1-.973,2.5,9.466,9.466,0,0,1-.178-2.27,36.955,36.955,0,0,1,1-3.593,3.2,3.2,0,0,1,.488-1.3c1.416-1.466.742-2.848.006-4.309-1.455-2.885-2.84-5.806-4.278-8.7a4.725,4.725,0,0,0-.84-1.091,14.193,14.193,0,0,1-3.4-6.83,10.376,10.376,0,0,1-.014-1.771A9.467,9.467,0,0,1,543,652.949a13.985,13.985,0,0,1,2.95,7.03,3.642,3.642,0,0,0,.369,1.184c1.664,3.514,3.325,7.028,5.048,10.51a1.819,1.819,0,0,0,1.125.677c1.176.3,2.374.51,3.565.756l.025-.031Z" transform="translate(-388.691 -467.934)" fill="#fff"/>
    <path id="Path_7699" data-name="Path 7699" d="M516.985,1146.849c-.623,1.232-1.249,2.465-2.028,4,1.466-.257,2.907-.51,4.346-.764.02.1.037.194.056.293a21.456,21.456,0,0,1-3.914.615c-1.43-.031-2.253.4-2.5,1.8-.547,3.13-1.168,6.252-1.6,9.4-.381,2.781-.5,5.6-.821,8.39-.245,2.166-.547,4.329-.97,6.464a7.3,7.3,0,0,1-1.128,1.985c-.172-.023-.344-.045-.516-.065a5.414,5.414,0,0,1-.18-1.892c.57-2.005,1.357-3.948,1.923-5.953a26.612,26.612,0,0,0,.787-4.236c.42-3.722.691-7.464,1.173-11.178a35.084,35.084,0,0,1,1.207-4.563c-.448-.313-.987-.685-1.526-1.06.045-.068.087-.135.133-.206.35.178.7.355.981.5a20.849,20.849,0,0,1-.217-4.05c.161-1.258-1.027-2.781.62-3.886.739.747.46,1.447.11,2.177-1,2.067-.66,4.03.477,6.179,1.4-2.377,2.346-4.568,1.509-7.208a6.194,6.194,0,0,1,.1-2.109c.265.028.53.053.792.082a30.4,30.4,0,0,1-1.117,8.6q1.167-1.642,2.338-3.28l-.031-.031Z" transform="translate(-364.475 -819.61)" fill="#fff"/>
    <path id="Path_7700" data-name="Path 7700" d="M420.712,772.659c-.107-.189-.2-.527-.319-.541-1.557-.155-3.125-.22-4.676-.412a7.021,7.021,0,0,1-1.678-.73,1.578,1.578,0,0,1,2.358-.214c1.627,1.294,3.46,1.207,5.316.835a1.5,1.5,0,0,0,.922-.88c.443-1.334.775-2.673-.149-4.016-.212-.3.042-.948.138-1.424a1.025,1.025,0,0,1,.575-.037,3.524,3.524,0,0,1,.313,1.286c-.059,1.241-.206,2.479-.341,3.954.462-.4.75-.654,1.041-.905.056.042.116.085.172.124-.522.651-1.041,1.3-1.681,2.1,1.751,2.6,3.466,5.282,5.335,7.848.75,1.026,1.951,1.717,2.75,2.719a8.9,8.9,0,0,1,1.246,2.642c.127.361-.1.846-.166,1.277a3.558,3.558,0,0,1-1.232-.423,8.512,8.512,0,0,1-2.941-4.975,3.057,3.057,0,0,0-.437-1.145c-1.661-2.49-3.353-4.96-5.059-7.476l-1.509.364.023.028Z" transform="translate(-297.24 -549.45)" fill="#fff"/>
    <path id="Path_7701" data-name="Path 7701" d="M411.782,1346.807c.372-.77.747-1.543,1.193-2.462-.888.609-1.613,1.105-2.335,1.6l.025.028c.649-.711,1.325-1.4,1.932-2.143.285-.35.716-.942.6-1.2-.685-1.486.609-3.164-.733-4.537l.51-.1a24.661,24.661,0,0,1,.682,3.488c.051.846.367,1.156,1.1,1.286,2.764.485,5.513,1.077,8.294,1.441,1.54.2,3.136-.059,4.693.068a5.943,5.943,0,0,1,2.2.854c.307.166.454.629.671.956-.307.183-.634.556-.917.522a17.967,17.967,0,0,1-5.022-.86,17.182,17.182,0,0,0-4.357-1.294c-2.163-.336-4.309-.77-6.322-1.136-.767,1.184-1.506,2.321-2.242,3.46l.028.025Z" transform="translate(-294.799 -960.711)" fill="#fff"/>
    <path id="Path_7702" data-name="Path 7702" d="M389.421,1522.306c-1.238-.316-.634,1.015-1.12,1.289-.068-.812-.138-1.647-.209-2.482l.025.025c-2.177-2.611-4.777-.516-7.208-.324-.031-.2-.059-.392-.09-.589.454-.183.917-.542,1.356-.516,1.977.107,3.948.35,5.928.474a1.309,1.309,0,0,0,1.012-.482,15.32,15.32,0,0,0,1.472-2.848c.533-1.483.823-3.057,1.354-4.543a6.481,6.481,0,0,1,3.4-4.128,3.733,3.733,0,0,1-1.2,3.285c-1.9,1.745-2.645,4-3.4,6.325a5.009,5.009,0,0,1-1.072,1.949,1.776,1.776,0,0,0-.248,2.566h0Z" transform="translate(-273.388 -1082.9)" fill="#fff"/>
    <path id="Path_7703" data-name="Path 7703" d="M419.605,791.513a7.985,7.985,0,0,1-1.368.553c-1.356.288-2.718.553-4.092.733a5.864,5.864,0,0,1-1.551-.211c-.023-.178-.042-.355-.065-.536.6-.147,1.314-.578,1.763-.386,1.658.711,3.2.262,4.783-.135a2.144,2.144,0,0,1,.553.009l-.023-.028Z" transform="translate(-296.156 -568.332)" fill="#fff"/>
    <path id="Path_7704" data-name="Path 7704" d="M237.67,738.69a20.535,20.535,0,0,1,2.022-2.005,3.779,3.779,0,0,1,1.966-.615c-.547,2.07-2.795,1.542-3.889,2.721l-.1-.1Z" transform="translate(-170.607 -528.526)" fill="#fff"/>
    <path id="Path_7705" data-name="Path 7705" d="M510.491,1155.767c-.178-1.235-2.524-1.963-2.1-4.157C510.229,1152.605,509.369,1155.031,510.491,1155.767Z" transform="translate(-364.947 -826.883)" fill="#fff"/>
    <path id="Path_7706" data-name="Path 7706" d="M593.35,727.581a16.967,16.967,0,0,1,2.7.406,3.363,3.363,0,0,1,1.464,1.244c-2.042.891-2.721-1.238-4.134-1.681Z" transform="translate(-425.985 -522.409)" fill="#fff"/>
    <path id="Path_7707" data-name="Path 7707" d="M406.7,1369.14c-.979,1.176-1.2,2.961-3.094,3.81-.034-2.428,2.369-2.425,3.125-3.782l-.028-.025Z" transform="translate(-289.75 -983.069)" fill="#fff"/>
    <path id="Path_7708" data-name="Path 7708" d="M398.159,1554.04c-1.077,1.165-1.495,2.978-3.319,3.409.465-1.777,2.383-2.1,3.345-3.381l-.025-.026Z" transform="translate(-283.455 -1115.828)" fill="#fff"/>
    <path id="Path_7709" data-name="Path 7709" d="M401.612,1366.173c-1.145.6-1.568,2.313-3.542,1.856.4-.417.73-.987,1.221-1.215a12.8,12.8,0,0,1,2.346-.615l-.025-.028Z" transform="translate(-285.774 -980.937)" fill="#fff"/>
    <path id="Path_7710" data-name="Path 7710" d="M456.414,761.841q-.677,1.29-1.351,2.583c-.4-1.289-.477-2.414.781-2.944C456.033,761.6,456.225,761.72,456.414,761.841Z" transform="translate(-326.507 -546.771)" fill="#fff"/>
    <path id="Path_7711" data-name="Path 7711" d="M540.694,1153.184c.065-.852.09-1.712.231-2.549.028-.164.5-.251.761-.375.093.24.336.556.257.708-.381.753-.849,1.461-1.283,2.185Z" transform="translate(-388.153 -825.914)" fill="#fff"/>
    <path id="Path_7712" data-name="Path 7712" d="M555.069,1162.034c-.017,1.511-1.258,1.481-2.5,1.486q1.041-.969,2.081-1.94C554.789,1161.732,554.93,1161.882,555.069,1162.034Z" transform="translate(-396.705 -834.042)" fill="#fff"/>
    <path id="Path_7713" data-name="Path 7713" d="M412.983,1328c-1.105-.64-1.664-1.393-1.2-2.724C413.084,1325.833,413.129,1326.814,412.983,1328Z" transform="translate(-295.5 -951.578)" fill="#fff"/>
    <path id="Path_7714" data-name="Path 7714" d="M407.037,1338.861c-1.046-.13-2.078-.082-2.177-1.52C406.369,1336.735,406.445,1338.077,407.037,1338.861Z" transform="translate(-290.649 -960.128)" fill="#fff"/>
    <path id="Path_7715" data-name="Path 7715" d="M410.451,1558.273a7.5,7.5,0,0,1,.575,1.337,14.469,14.469,0,0,1,.149,1.954c-1.644-1.125-.948-2.242-.722-3.294h0Z" transform="translate(-294.421 -1118.865)" fill="#fff"/>
    <path id="Path_7716" data-name="Path 7716" d="M402.186,1566.73c.135,1.111.116,1.994-1.1,2.408C400.575,1567.931,401.368,1567.412,402.186,1566.73Z" transform="translate(-287.822 -1124.939)" fill="#fff"/>
    <path id="Path_7717" data-name="Path 7717" d="M393.442,1555.251l-2.042.964c.085-1.492.894-1.56,1.836-1.373.068.138.138.274.206.412Z" transform="translate(-280.985 -1116.35)" fill="#fff"/>
    <path id="Path_7718" data-name="Path 7718" d="M586.349,741.522c-.2-.666-.392-1.334-.589-2l.6-.2c.245.646.488,1.292.733,1.937C586.843,741.345,586.6,741.432,586.349,741.522Z" transform="translate(-420.535 -530.859)" fill="#fff"/>
    <path id="Path_7719" data-name="Path 7719" d="M60.864,821.645c-1.2.1-2.31.226-2.964-1.125C59.383,819.719,59.936,821.033,60.864,821.645Z" transform="translate(-41.532 -588.98)" fill="#fff"/>
    <path id="Path_7720" data-name="Path 7720" d="M79.218,811.48c-.62.761-.781,2.042-2.273,1.963-.11-1.765,1.334-1.574,2.3-1.935l-.025-.028Z" transform="translate(-55.202 -582.67)" fill="#fff"/>
  </g>
</svg>
