<svg xmlns="http://www.w3.org/2000/svg" width="60.447" height="60.239" viewBox="0 0 60.447 60.239">
  <g id="boat" transform="translate(-0.001 -0.499)">
    <path id="Path_7789" data-name="Path 7789" d="M60.273,42.812a1.179,1.179,0,0,0-1.094-.559L29.423,44.486V41.722l20.4-1.4a1.18,1.18,0,0,0,.943-1.765L29.267,1.092a1.181,1.181,0,0,0-2.2.588V6.724L5.741,41.233a1.181,1.181,0,0,0,1,1.8l.068,0L27.062,41.87v2.793L1.093,46.611A1.181,1.181,0,0,0,.054,48.137l1.473,4.5a13.431,13.431,0,0,0,12.336,8.1h28.75a13.516,13.516,0,0,0,11.51-6.5l6.156-10.2a1.182,1.182,0,0,0-.005-1.229Zm-30.85-36.7L47.776,38.1,29.423,39.355Zm-2.361,5.107V39.5l-18.12,1.04ZM52.1,53.02a11.142,11.142,0,0,1-9.488,5.357H13.862a11.074,11.074,0,0,1-9.375-5.171l30.529-2.387a1.181,1.181,0,1,0-.184-2.354L3.391,50.923q-.062-.181-.119-.362l-.526-1.706,54.328-4.077L55.854,46.8l-7.6.6a1.181,1.181,0,0,0,.185,2.354l5.916-.465Zm0,0" transform="translate(0 0)" fill="#112542"/>
    <path id="Path_7790" data-name="Path 7790" d="M337.789,405.027a1.143,1.143,0,0,1-.451-.091,1.24,1.24,0,0,1-.2-.109,1.165,1.165,0,0,1-.179-.146,1.141,1.141,0,0,1-.147-.179,1.207,1.207,0,0,1-.176-.425,1.182,1.182,0,0,1,0-.46,1.207,1.207,0,0,1,.176-.425,1.119,1.119,0,0,1,.147-.179,1.139,1.139,0,0,1,.179-.146,1.24,1.24,0,0,1,.2-.109,1.107,1.107,0,0,1,.22-.067,1.192,1.192,0,0,1,1.066.322,1.118,1.118,0,0,1,.146.179,1.141,1.141,0,0,1,.109.2,1.187,1.187,0,0,1,.067.221,1.208,1.208,0,0,1,0,.46,1.187,1.187,0,0,1-.067.221,1.156,1.156,0,0,1-.109.2,1.173,1.173,0,0,1-.982.525Zm0,0" transform="translate(-296.868 -354.688)" fill="#112542"/>
  </g>
</svg>
