<svg xmlns="http://www.w3.org/2000/svg" width="62.003" height="62" viewBox="0 0 62.003 62">
  <g id="celebration" transform="translate(-1 -1)">
    <path id="Path_7727" data-name="Path 7727" d="M2,63a1,1,0,0,0,.371-.071l35-13.988-.007-.019a4.529,4.529,0,0,0,2.268-1.171A5.1,5.1,0,0,0,41,44.039c0-3.86-2.844-9.089-7.422-13.649-6.584-6.556-14.237-9.2-17.421-6.029a4.565,4.565,0,0,0-1.164,2.164h-.012L1.07,61.632A1,1,0,0,0,2,63ZM32.847,48.6,28,50.533v-4.19A20.545,20.545,0,0,0,32.847,48.6ZM26,51.332l-2,.8V43.387c.663.576,1.331,1.107,2,1.6Zm-4,1.6-2,.8V39.306c.621.744,1.289,1.48,2,2.2Zm-4,1.6-2,.8V33.04a23.9,23.9,0,0,0,2,3.6Zm-4,1.6-2,.8V39.475l2-5.048Zm-4,1.6-2,.8V49.571l2-5.048Zm9.861-32.707c2.965,0,7.749,2.251,12.3,6.788C36.317,35.941,39,40.742,39,44.039a3.121,3.121,0,0,1-.78,2.3c-2.022,2.012-8.513.031-14.6-6.029A31.856,31.856,0,0,1,20,36.015V36h-.01c-2.013-2.882-3.2-5.737-3.2-7.926a3.122,3.122,0,0,1,.78-2.3,3.164,3.164,0,0,1,2.291-.755ZM6,54.62v4.705l-2.215.885Z" fill="#112542"/>
    <path id="Path_7728" data-name="Path 7728" d="M24.384,14H39.616v2H24.384Z" transform="matrix(0.394, -0.919, 0.919, 0.394, 5.603, 38.499)" fill="#112542"/>
    <path id="Path_7729" data-name="Path 7729" d="M41.384,31H56.616v2H41.384Z" transform="matrix(0.919, -0.394, 0.394, 0.919, -8.644, 21.889)" fill="#112542"/>
    <path id="Path_7730" data-name="Path 7730" d="M44,9a3,3,0,1,0-3-3A3,3,0,0,0,44,9Zm0-4a1,1,0,1,1-1,1A1,1,0,0,1,44,5Z" fill="#112542"/>
    <path id="Path_7731" data-name="Path 7731" d="M58,22a3,3,0,1,0-3-3A3,3,0,0,0,58,22Zm0-4a1,1,0,1,1-1,1A1,1,0,0,1,58,18Z" fill="#112542"/>
    <path id="Path_7732" data-name="Path 7732" d="M60,7a3,3,0,1,0-3-3,3,3,0,0,0,3,3Zm0-4a1,1,0,1,1-1,1A1,1,0,0,1,60,3Z" fill="#112542"/>
    <path id="Path_7733" data-name="Path 7733" d="M49,41a3,3,0,1,0-3,3A3,3,0,0,0,49,41Zm-4,0a1,1,0,1,1,1,1A1,1,0,0,1,45,41Z" fill="#112542"/>
    <path id="Path_7734" data-name="Path 7734" d="M22,15a3,3,0,1,0,3,3A3,3,0,0,0,22,15Zm0,4a1,1,0,1,1,1-1A1,1,0,0,1,22,19Z" fill="#112542"/>
    <path id="Path_7735" data-name="Path 7735" d="M44.394,25H51.6v2H44.394Z" transform="matrix(0.832, -0.555, 0.555, 0.832, -6.361, 30.992)" fill="#112542"/>
    <path id="Path_7736" data-name="Path 7736" d="M34.394,15H41.6v2H34.394Z" transform="matrix(0.555, -0.832, 0.832, 0.555, 3.609, 38.743)" fill="#112542"/>
    <path id="Path_7737" data-name="Path 7737" d="M12,23.845a1.781,1.781,0,0,1,.3-.993l1.062-1.594a3.789,3.789,0,0,0-.472-4.781l-.367-.368A1.777,1.777,0,0,1,12,14.845V14H10v.845a3.765,3.765,0,0,0,1.109,2.678l.367.368a1.787,1.787,0,0,1,.223,2.257l-1.062,1.594a3.784,3.784,0,0,0-.637,2.1V24h2Z" fill="#112542"/>
    <path id="Path_7738" data-name="Path 7738" d="M40.992,52.7A1.787,1.787,0,0,1,40,53v2a3.783,3.783,0,0,0,2.1-.637L43.7,53.3a1.838,1.838,0,0,1,2.258.224l.366.367A3.77,3.77,0,0,0,49,55h1V53H49a1.779,1.779,0,0,1-1.266-.524l-.366-.366a3.889,3.889,0,0,0-4.781-.474Z" fill="#112542"/>
    <path id="Path_7739" data-name="Path 7739" d="M32.686,19H55.313v2H32.686Z" transform="translate(-1.255 36.971) rotate(-45)" fill="#112542"/>
    <path id="Path_7740" data-name="Path 7740" d="M18.418,8.106l-.492,2.716A1,1,0,0,0,19.355,11.9L22,10.58l2.645,1.32a1,1,0,0,0,1.429-1.074L25.582,8.11l2.1-1.934a1,1,0,0,0-.542-1.725L24.2,4.046l-1.3-2.5a1.041,1.041,0,0,0-1.774,0l-1.3,2.5-2.944.405a1,1,0,0,0-.542,1.725Zm2.173-2.153a1,1,0,0,0,.751-.528L22,4.163l.658,1.262a1,1,0,0,0,.751.528l1.356.187-.943.869a1,1,0,0,0-.306.913l.235,1.294-1.306-.649a1,1,0,0,0-.89,0l-1.306.649.235-1.294a1,1,0,0,0-.306-.913l-.943-.869Z" fill="#112542"/>
    <path id="Path_7741" data-name="Path 7741" d="M62.136,37.447l-2.944-.4-1.3-2.5a1.041,1.041,0,0,0-1.774,0l-1.3,2.5-2.944.4a1,1,0,0,0-.542,1.725l2.1,1.934-.492,2.716A1,1,0,0,0,54.355,44.9L57,43.58l2.645,1.32a1,1,0,0,0,1.429-1.074l-.492-2.716,2.1-1.934a1,1,0,0,0-.542-1.725Zm-3.314,2.562a1,1,0,0,0-.306.913l.235,1.294-1.306-.649a1,1,0,0,0-.89,0l-1.306.649.235-1.294a1,1,0,0,0-.306-.913l-.943-.869,1.356-.187a1,1,0,0,0,.751-.528L57,37.163l.658,1.262a1,1,0,0,0,.751.528l1.356.187Z" fill="#112542"/>
  </g>
</svg>
