<svg xmlns="http://www.w3.org/2000/svg" width="64.333" height="64.333" viewBox="0 0 64.333 64.333">
  <g id="XMLID_867_" transform="translate(0 -0.001)">
    <g id="XMLID_244_" transform="translate(0 0.001)">
      <path id="XMLID_722_" d="M366.744,12.236a6.118,6.118,0,1,0-6.118-6.118A6.125,6.125,0,0,0,366.744,12.236Zm0-9.722a3.6,3.6,0,1,1-3.6,3.6A3.609,3.609,0,0,1,366.744,2.514Z" transform="translate(-315.313 -0.001)" fill="#112542"/>
      <path id="XMLID_857_" d="M.169,90a1.256,1.256,0,0,0,1.088.628h61.82a1.257,1.257,0,0,0,1.088-1.885L57.077,76.465A1.256,1.256,0,1,0,54.9,77.722l6,10.392H51.745L38.669,65.466l4.578-7.929,6,10.392a1.256,1.256,0,1,0,2.176-1.257L44.335,54.4a1.256,1.256,0,0,0-2.176,0l-4.94,8.557L27.227,45.646a1.256,1.256,0,0,0-2.176,0L8.67,74.017,5.928,69.266a1.256,1.256,0,0,0-2.176,0l-3.582,6.2a1.256,1.256,0,1,0,2.176,1.257l2.494-4.32,2.38,4.122L.169,88.742A1.256,1.256,0,0,0,.169,90Zm25.97-41.211,7.925,13.727-3.844,3.844-5.682-5.682A1.257,1.257,0,0,0,23,60.49l-5.562,3.37ZM14.826,68.381l8.631-5.23,5.874,5.874a1.256,1.256,0,0,0,1.777,0l4.257-4.257L48.844,88.114H3.433Z" transform="translate(0 -39.362)" fill="#112542"/>
      <path id="XMLID_859_" d="M15.876,441.258A1.256,1.256,0,0,0,14.619,440H1.259a1.257,1.257,0,1,0,0,2.513H14.619A1.256,1.256,0,0,0,15.876,441.258Z" transform="translate(-0.002 -384.715)" fill="#112542"/>
      <path id="XMLID_860_" d="M194.092,440a1.257,1.257,0,1,0,0,2.513h13.361a1.257,1.257,0,1,0,0-2.513Z" transform="translate(-168.605 -384.715)" fill="#112542"/>
      <path id="XMLID_886_" d="M400.286,440H386.926a1.257,1.257,0,1,0,0,2.513h13.361a1.257,1.257,0,1,0,0-2.513Z" transform="translate(-337.21 -384.715)" fill="#112542"/>
      <path id="XMLID_1027_" d="M305,492H291.258a1.257,1.257,0,1,0,0,2.513H305A1.257,1.257,0,0,0,305,492Z" transform="translate(-253.563 -430.181)" fill="#112542"/>
      <path id="XMLID_1028_" d="M107.663,492H93.926a1.257,1.257,0,1,0,0,2.513h13.738a1.257,1.257,0,1,0,0-2.513Z" transform="translate(-81.025 -430.181)" fill="#112542"/>
      <path id="XMLID_1070_" d="M413.46,251.7a1.259,1.259,0,1,0,.888-.367A1.269,1.269,0,0,0,413.46,251.7Z" transform="translate(-361.187 -219.751)" fill="#112542"/>
    </g>
  </g>
</svg>
