<svg xmlns="http://www.w3.org/2000/svg" width="56.833" height="56.833" viewBox="0 0 56.833 56.833">
  <g id="music-note" transform="translate(-0.001 0)">
    <g id="Group_127" data-name="Group 127" transform="translate(19.981 13.543)">
      <g id="Group_126" data-name="Group 126">
        <path id="Path_7725" data-name="Path 7725" d="M216.192,122.339a1.665,1.665,0,0,0-1.458-.274l-23.532,6.66a1.665,1.665,0,0,0-1.212,1.6v22.541a6.658,6.658,0,1,0,3.33,5.764V138.247l20.2-5.718v13.68a6.658,6.658,0,1,0,3.33,5.764V123.667A1.665,1.665,0,0,0,216.192,122.339ZM186.66,161.963a3.33,3.33,0,1,1,3.33-3.33A3.334,3.334,0,0,1,186.66,161.963Zm23.532-6.66a3.33,3.33,0,1,1,3.33-3.33A3.334,3.334,0,0,1,210.193,155.3Zm3.33-26.235-20.2,5.718v-3.2l20.2-5.718Z" transform="translate(-180 -122.002)" fill="#112542"/>
      </g>
    </g>
    <g id="Group_129" data-name="Group 129" transform="translate(0.001 0)">
      <g id="Group_128" data-name="Group 128" transform="translate(0 0)">
        <path id="Path_7726" data-name="Path 7726" d="M23.234,11.82a33.452,33.452,0,0,1-8.274-8.2L13.042.742a1.665,1.665,0,0,0-3.05.924V27.759a6.658,6.658,0,1,0,3.33,5.764V7.037a39.323,39.323,0,0,0,7.944,7.469,5,5,0,0,1-2.949,9.027,1.665,1.665,0,1,0,0,3.33A8.326,8.326,0,0,0,23.234,11.82ZM6.661,36.853a3.33,3.33,0,1,1,3.33-3.33A3.334,3.334,0,0,1,6.661,36.853Z" transform="translate(-0.001 0)" fill="#112542"/>
      </g>
    </g>
  </g>
</svg>
