<svg xmlns="http://www.w3.org/2000/svg" width="64.001" height="64.001" viewBox="0 0 64.001 64.001"><g transform="translate(0.001)"><path d="M48.985,49a1,1,0,0,1-1-1V21a1,1,0,0,1,2,0V48A1,1,0,0,1,48.985,49Z" fill="#112542"/><path d="M40.985,31a6.006,6.006,0,0,1-6-6c0-3.025,4.686-8.959,5.22-9.625a1,1,0,0,1,1.78.625c0,2.192,1.1,3.177,2.375,4.316,1.23,1.1,2.625,2.348,2.625,4.684A6.006,6.006,0,0,1,40.985,31ZM40.4,18.431c-1.654,2.31-3.417,5.209-3.417,6.569a4,4,0,0,0,8,0c0-1.374-.708-2.074-1.958-3.192A8.616,8.616,0,0,1,40.4,18.431Z" fill="#112542"/><path d="M47.985,33a8.009,8.009,0,0,1-8-8,1,1,0,0,1,2,0,6.006,6.006,0,0,0,6,6,1,1,0,0,1,0,2Z" fill="#112542"/><path d="M56.985,39a6.006,6.006,0,0,1-6-6c0-2.336,1.4-3.583,2.625-4.684,1.275-1.14,2.375-2.124,2.375-4.316a1,1,0,0,1,1.78-.625c.534.666,5.22,6.6,5.22,9.625A6.006,6.006,0,0,1,56.985,39Zm.583-12.569a8.607,8.607,0,0,1-2.625,3.377c-1.25,1.118-1.958,1.818-1.958,3.192a4,4,0,0,0,8,0C60.985,31.64,59.221,28.74,57.568,26.431Z" fill="#112542"/><path d="M49.985,41a1,1,0,0,1,0-2,6.006,6.006,0,0,0,6-6,1,1,0,0,1,2,0A8.009,8.009,0,0,1,49.985,41Z" fill="#112542"/><path d="M50.985,22.364a6,6,0,0,1-4.243-10.243c2.139-2.139,9.648-3.021,10.5-3.115a1.012,1.012,0,0,1,1.011.562,1,1,0,0,1-.194,1.14c-1.55,1.55-1.468,3.024-1.373,4.732.092,1.647.2,3.516-1.456,5.167a5.958,5.958,0,0,1-4.243,1.758Zm4.233-11.058c-2.8.464-6.1,1.268-7.062,2.229a4,4,0,0,0,0,5.657,4.1,4.1,0,0,0,5.657,0c.972-.972.966-1.967.873-3.642a8.613,8.613,0,0,1,.532-4.244Z" fill="#112542"/><path d="M48.956,21.934h-.049a1,1,0,0,1-.951-1.047,7.926,7.926,0,0,1,2.322-5.229,1,1,0,0,1,1.414,1.414,5.925,5.925,0,0,0-1.738,3.91,1,1,0,0,1-1,.952Z" fill="#112542"/><path d="M25.985,28a1,1,0,0,1-1-1c0-1.654-1.794-3-4-3a1,1,0,0,1,0-2c3.309,0,6,2.243,6,5A1,1,0,0,1,25.985,28Z" fill="#112542"/><path d="M16.985,40a1,1,0,0,1-1-1c0-5.88,1.045-17,5-17a1,1,0,1,1,0,2c-.9,0-3,5.1-3,15A1,1,0,0,1,16.985,40Z" fill="#112542"/><path d="M29.929,51.78a1,1,0,0,1-1-.918C28.562,46.38,26,43,22.979,43a1,1,0,0,1,0-2c4.073,0,7.49,4.169,7.947,9.7a1,1,0,0,1-.914,1.079l-.083,0Z" fill="#112542"/><path d="M33.829,51.51a1,1,0,0,1-.991-.879C32.032,44,27.795,39,22.981,39a1,1,0,0,1,0-2C28.8,37,33.9,42.756,34.824,50.389a1,1,0,0,1-.994,1.121Z" fill="#112542"/><path d="M12.554,55.85a.991.991,0,0,1-.5-.137A2.058,2.058,0,0,1,10.985,54a3.37,3.37,0,0,1,1.1-2.5l.149-.16c2.251-2.551,3.75-5.626,3.75-12.339a1,1,0,0,1,2,0c0,7.773-2.043,11.16-4.25,13.662-.062.069-.131.143-.2.218a1.441,1.441,0,0,0-.546,1.079c.007-.022.039.007.075.027a1,1,0,0,1-.507,1.863Z" fill="#112542"/><path d="M17.031,54.46a1,1,0,0,1-.578-1.817A13.449,13.449,0,0,0,21.98,42a1,1,0,0,1,2,0,15.511,15.511,0,0,1-6.373,12.276,1,1,0,0,1-.576.184Z" fill="#112542"/><path d="M34.985,33c-5.607,0-10-2.636-10-6a1,1,0,0,1,2,0c0,1.892,3.286,4,8,4a1,1,0,0,1,0,2Z" fill="#112542"/><path d="M36.985,35a1,1,0,0,1-1-1,1,1,0,0,0-1-1,1,1,0,0,1,0-2,3,3,0,0,1,3,3A1,1,0,0,1,36.985,35Z" fill="#112542"/><path d="M33.985,37a1,1,0,0,1,0-2c1.221,0,2-.592,2-1a1,1,0,0,1,2,0C37.985,35.683,36.228,37,33.985,37Z" fill="#112542"/><path d="M33.985,37c-6.168,0-11-2.636-11-6a1,1,0,0,1,2,0c0,1.892,3.7,4,9,4a1,1,0,0,1,0,2Z" fill="#112542"/><path d="M22.985,39a1,1,0,0,1-1-1c0-5.309.673-8,2-8a1,1,0,0,1,.628,1.778A27.593,27.593,0,0,0,23.985,38,1,1,0,0,1,22.985,39Z" fill="#112542"/><path d="M18.985,25a1,1,0,0,1-.905-.573,8.813,8.813,0,0,0-3.1-.427,1,1,0,1,1,0-2c1.867,0,5,.26,5,2A1,1,0,0,1,18.985,25Z" fill="#112542"/><path d="M11.985,28a1,1,0,0,1-1-1c0-2.757,1.794-5,4-5a1,1,0,0,1,0,2c-1.084,0-2,1.374-2,3A1,1,0,0,1,11.985,28Z" fill="#112542"/><path d="M12.985,29a2,2,0,0,1-2-2,1,1,0,0,1,2,0v0a1,1,0,1,1,0,2Z" fill="#112542"/><path d="M10.985,35a1,1,0,0,1-1-1c0-3.484.928-7,3-7a1,1,0,0,1,.089,2c-.345.281-1.089,2-1.089,5A1,1,0,0,1,10.985,35Z" fill="#112542"/><path d="M15.985,39c-3.309,0-6-2.243-6-5a1,1,0,0,1,2,0c0,1.654,1.794,3,4,3a1,1,0,1,1,0,2Z" fill="#112542"/><path d="M9.985,37a1,1,0,0,1,0-2c1.626,0,3-2.29,3-5a1,1,0,0,1,2,0C14.985,33.925,12.789,37,9.985,37Z" fill="#112542"/><path d="M13.985,31a1,1,0,0,1-1-1c0-3.859,2.691-7,6-7a1,1,0,1,1,0,2c-2.206,0-4,2.243-4,5a1,1,0,0,1-1,1Z" fill="#112542"/><path d="M24.985,22a5,5,0,1,1,5-5A5.006,5.006,0,0,1,24.985,22Zm0-8a3,3,0,1,0,3,3A3,3,0,0,0,24.985,14Z" fill="#112542"/><path d="M39.134,51.07a1,1,0,0,1-.959-.72l-4.14-14.19a1,1,0,1,1,1.92-.56L40.1,49.79a1,1,0,0,1-.68,1.24,1.015,1.015,0,0,1-.281.04Z" fill="#112542"/><path d="M33.845,32.95a1,1,0,0,1-.959-.72l-.86-2.95a1,1,0,0,1,1.92-.56l.86,2.95a1,1,0,0,1-.96,1.28Z" fill="#112542"/><path d="M48,64H1a1,1,0,0,1-.768-1.64c.42-.5,10.576-12.355,35.159-12.9a1,1,0,0,1,.043,2C17.3,51.862,7.213,58.77,3.469,62H48a1,1,0,0,1,0,2Z" fill="#112542"/><path d="M63,64H38.985a1,1,0,0,1-1-1,8.917,8.917,0,0,1,3.01-6.708c-.007-.1-.01-.2-.01-.292a5.008,5.008,0,0,1,4.328-4.955,5.982,5.982,0,0,1,10.218-1.937A5.988,5.988,0,0,1,58.985,48,9.881,9.881,0,0,1,62,48.34V44.026c-5.526.205-32.008,2.071-32.008,18.9a1,1,0,0,1-2,0c0-8.64,6.128-15,17.723-18.4A68.749,68.749,0,0,1,63,42a1,1,0,0,1,1,1V63a1,1,0,0,1-1,1ZM40.056,62H62V51c0-.757-.732-1-3.015-1a3.955,3.955,0,0,0-2.91,1.274,1,1,0,0,1-1.6-.2,3.985,3.985,0,0,0-7.4,1.134,1,1,0,0,1-.98.8A1.7,1.7,0,0,1,45.9,53,2.994,2.994,0,0,0,42.985,56a3.076,3.076,0,0,0,.056.538,1,1,0,0,1-.37.96A6.937,6.937,0,0,0,40.056,62Z" fill="#112542"/><path d="M10,15a5,5,0,1,1,5-5A5.006,5.006,0,0,1,10,15Zm0-8a3,3,0,1,0,3,3A3,3,0,0,0,10,7Z" fill="#112542"/><path d="M10,20a1,1,0,0,1-1-1V17.5a1,1,0,0,1,2,0V19A1,1,0,0,1,10,20Z" fill="#112542"/><path d="M10,3.5a1,1,0,0,1-1-1V1a1,1,0,0,1,2,0V2.5A1,1,0,0,1,10,3.5Z" fill="#112542"/><path d="M2.5,11H1A1,1,0,0,1,1,9H2.5a1,1,0,0,1,0,2Z" fill="#112542"/><path d="M19,11H17.5a1,1,0,0,1,0-2H19a1,1,0,0,1,0,2Z" fill="#112542"/><path d="M16.364,17.364a1,1,0,0,1-.707-.293L14.6,16.01A1,1,0,0,1,16.01,14.6l1.061,1.061a1,1,0,0,1-.707,1.707Z" fill="#112542"/><path d="M4.7,5.7A1,1,0,0,1,3.99,5.4L2.929,4.342A1,1,0,0,1,4.343,2.928L5.4,3.989A1,1,0,0,1,4.7,5.7Z" fill="#112542"/><path d="M3.636,17.364a1,1,0,0,1-.707-1.707L3.99,14.6A1,1,0,0,1,5.4,16.01L4.343,17.071a1,1,0,0,1-.707.293Z" fill="#112542"/><path d="M15.3,5.7A1,1,0,0,1,14.6,3.989l1.061-1.061a1,1,0,0,1,1.414,1.414L16.01,5.4A1,1,0,0,1,15.3,5.7Z" fill="#112542"/></g></svg>