<svg xmlns="http://www.w3.org/2000/svg" width="58" height="58" viewBox="0 0 58 58">
  <g id="restaurant" transform="translate(0 0)">
    <g id="Group_131" data-name="Group 131" transform="translate(12.914 12.914)">
      <g id="Group_130" data-name="Group 130">
        <path id="Path_7742" data-name="Path 7742" d="M130.086,114a16.086,16.086,0,1,0,16.086,16.086A16.1,16.1,0,0,0,130.086,114Zm0,29.906a13.82,13.82,0,1,1,13.82-13.82A13.836,13.836,0,0,1,130.086,143.906Z" transform="translate(-114 -114)" fill="#112542"/>
      </g>
    </g>
    <g id="Group_133" data-name="Group 133" transform="translate(47.352 0)">
      <g id="Group_132" data-name="Group 132">
        <path id="Path_7743" data-name="Path 7743" d="M428.047.132a1.133,1.133,0,0,0-1.166.062A20.154,20.154,0,0,0,418,16.914v14.7a5.864,5.864,0,0,0,1.729,4.174l2.123,2.123V54.6a3.4,3.4,0,0,0,6.8,0V1.133A1.133,1.133,0,0,0,428.047.132ZM426.383,54.6a1.133,1.133,0,0,1-2.266,0V37.439a1.133,1.133,0,0,0-.332-.8l-2.455-2.455a3.613,3.613,0,0,1-1.065-2.571v-14.7a17.887,17.887,0,0,1,6.117-13.482Z" transform="translate(-418 0)" fill="#112542"/>
      </g>
    </g>
    <g id="Group_135" data-name="Group 135" transform="translate(18.587 19.328)">
      <g id="Group_134" data-name="Group 134">
        <path id="Path_7744" data-name="Path 7744" d="M171.889,171.305a1.133,1.133,0,0,0-1.487-.6,10.4,10.4,0,0,0-6.328,9.581,1.133,1.133,0,0,0,2.266,0,8.141,8.141,0,0,1,4.952-7.5A1.133,1.133,0,0,0,171.889,171.305Z" transform="translate(-164.075 -170.617)" fill="#112542"/>
      </g>
    </g>
    <g id="Group_137" data-name="Group 137" transform="translate(27.818 18.587)">
      <g id="Group_136" data-name="Group 136">
        <path id="Path_7745" data-name="Path 7745" d="M246.744,164.075h-.057a1.133,1.133,0,0,0,.007,2.266h.05a1.133,1.133,0,0,0,0-2.266Z" transform="translate(-245.562 -164.075)" fill="#112542"/>
      </g>
    </g>
    <g id="Group_139" data-name="Group 139" transform="translate(18.571 7.354)">
      <g id="Group_138" data-name="Group 138">
        <path id="Path_7746" data-name="Path 7746" d="M190.07,71.662a21.661,21.661,0,0,0-25.513-4.4,1.133,1.133,0,1,0,1.028,2.019,19.4,19.4,0,0,1,22.842,3.943,1.133,1.133,0,0,0,1.643-1.56Z" transform="translate(-163.937 -64.914)" fill="#112542"/>
      </g>
    </g>
    <g id="Group_141" data-name="Group 141" transform="translate(16.775 40.58)">
      <g id="Group_140" data-name="Group 140">
        <path id="Path_7747" data-name="Path 7747" d="M177.11,358.468a1.133,1.133,0,0,0-1.591.186,19.388,19.388,0,0,1-25.691,4.3,1.133,1.133,0,1,0-1.227,1.9,21.654,21.654,0,0,0,28.695-4.8A1.133,1.133,0,0,0,177.11,358.468Z" transform="translate(-148.081 -358.224)" fill="#112542"/>
      </g>
    </g>
    <g id="Group_143" data-name="Group 143" transform="translate(13.367 42.367)">
      <g id="Group_142" data-name="Group 142">
        <path id="Path_7748" data-name="Path 7748" d="M120.034,374.444l-.017-.019L120,374.4a1.133,1.133,0,1,0-1.733,1.459l.011.013h0l.037.045a1.133,1.133,0,0,0,1.719-1.476Z" transform="translate(-118 -374)" fill="#112542"/>
      </g>
    </g>
    <g id="Group_145" data-name="Group 145" transform="translate(0 0)">
      <g id="Group_144" data-name="Group 144">
        <path id="Path_7749" data-name="Path 7749" d="M14.047,0a1.133,1.133,0,0,0-1.133,1.133V13.367h-2.04c0-.006,0-.012,0-.019V1.133a1.133,1.133,0,0,0-2.266,0V13.348c0,.006,0,.013,0,.019H6.569c0-.006,0-.012,0-.019V1.133a1.133,1.133,0,0,0-2.266,0V13.348c0,.006,0,.013,0,.019H2.266V1.133A1.133,1.133,0,0,0,0,1.133v13.82a6.977,6.977,0,0,0,4.191,6.371V54.6a3.4,3.4,0,0,0,6.8,0V21.324a6.977,6.977,0,0,0,4.191-6.371V1.133A1.133,1.133,0,0,0,14.047,0ZM9.541,19.441a1.133,1.133,0,0,0-.818,1.088V54.6a1.133,1.133,0,0,1-2.266,0V20.53a1.133,1.133,0,0,0-.818-1.088,4.7,4.7,0,0,1-3.322-3.809H12.863A4.7,4.7,0,0,1,9.541,19.441Z" fill="#112542"/>
      </g>
    </g>
  </g>
</svg>
