<?xml version="1.0" encoding="utf-8"?>
<!-- Generator: Adobe Illustrator 25.0.0, SVG Export Plug-In . SVG Version: 6.00 Build 0)  -->
<svg version="1.1" id="Layer_1" xmlns="http://www.w3.org/2000/svg" xmlns:xlink="http://www.w3.org/1999/xlink" x="0px" y="0px"
	 viewBox="0 0 42 42" style="enable-background:new 0 0 42 42;" xml:space="preserve">
<style type="text/css">
	.st0{fill:url(#SVGID_1_);}
</style>
<g>
	<linearGradient id="SVGID_1_" gradientUnits="userSpaceOnUse" x1="38.2193" y1="37.6955" x2="-27.423" y2="-36.9791">
		<stop  offset="3.171904e-03" style="stop-color:#004C75"/>
		<stop  offset="0.1529" style="stop-color:#196A92"/>
		<stop  offset="0.2808" style="stop-color:#378EB6"/>
		<stop  offset="0.4414" style="stop-color:#4EAAD1"/>
		<stop  offset="0.6161" style="stop-color:#5FBEE5"/>
		<stop  offset="0.82" style="stop-color:#69CAF1"/>
		<stop  offset="0.9194" style="stop-color:#6CCEF5"/>
	</linearGradient>
	<path class="st0" d="M40.5,5.5c-2-3.6-6.5-4.7-9.8-2.2c-1.6,1.2-3,2.6-4.5,3.9c-1.5,1.2-3,2.4-4.7,3.4c-1.4,0.8-2.2,0.6-3.4-0.6
		c-0.9-0.9-1.1-1.9-0.4-3.2c0.5-1,1.1-1.9,1.7-2.8c0.7-1.2,0.5-1.7-0.8-2c-1.9-0.4-3.6-0.1-5.3,0.6c-5.7,2.7-9.4,7.3-11.7,13
		C-0.7,21.3-0.7,27,2.8,32.2c3.8,5.6,9.3,7.8,16.2,8c8.4-0.4,15-4.3,19.2-12.1c2.6-4.8,3.7-9.9,3.8-15.3C42,10.3,41.7,7.8,40.5,5.5z
		 M29.1,20.4c-1,0.6-2.2,1-3.3,1.2c-2.3,0.4-3.9-1.4-3.3-3.7c0.2-0.7,0.5-1.3,0.9-1.9c1.6-2.2,3.6-3.8,6.2-4.7c2.6-0.9,4,0.1,4,3.3
		C33.3,17.1,31.6,19.1,29.1,20.4z"/>
</g>
</svg>
